<!DOCTYPE svg PUBLIC "-//W3C//DTD SVG 20010904//EN" "http://www.w3.org/TR/2001/REC-SVG-20010904/DTD/svg10.dtd">
<svg version="1.0" xmlns="http://www.w3.org/2000/svg" width="1200px" height="1200px" viewBox="0 0 12000 12000" preserveAspectRatio="xMidYMid meet">
<g id="layer101" fill="#302727" stroke="none">
<path d="M6960 9163 c-592 -60 -1152 -343 -1539 -776 -210 -235 -358 -481 -470 -779 l-51 -137 31 -83 c90 -247 236 -490 417 -696 31 -35 57 -73 59 -85 2 -11 -5 -39 -16 -61 -55 -119 -106 -352 -114 -520 -3 -78 -4 -80 -33 -89 -75 -25 -499 -193 -667 -266 -241 -104 -686 -311 -693 -322 -3 -5 49 -9 115 -9 l121 0 0 -30 0 -30 -196 0 -197 0 -388 -197 c-214 -108 -389 -200 -389 -205 0 -4 95 -8 210 -8 l210 0 0 -24 0 -23 -282 -8 -283 -7 -105 -54 c-58 -29 -193 -101 -300 -159 -107 -58 -228 -122 -267 -143 -40 -20 -73 -40 -73 -44 0 -4 151 -8 335 -8 l335 0 0 -23 c0 -23 -3 -24 -122 -30 -66 -4 -248 -7 -402 -7 l-281 0 -165 -91 c-91 -50 -223 -124 -295 -164 -71 -40 -163 -90 -202 -111 -40 -22 -73 -42 -73 -46 0 -5 236 -8 523 -8 l524 0 86 60 c48 33 87 57 87 53 0 -5 5 0 11 10 6 9 14 15 20 12 5 -4 9 -2 9 3 0 10 396 275 404 270 3 -2 12 6 20 17 9 11 16 16 16 10 0 -6 3 -6 8 1 11 16 222 156 222 147 0 -5 4 -3 8 3 8 13 111 78 127 80 5 1 16 3 24 5 16 5 35 -41 76 -176 41 -133 85 -268 93 -285 5 -8 19 -50 33 -92 17 -54 30 -79 44 -84 11 -5 -40 -11 -120 -14 -77 -3 191 -7 595 -8 404 -2 1001 -5 1325 -8 910 -9 1047 7 1339 153 105 52 160 88 239 155 l57 50 96 -62 c52 -34 136 -82 187 -106 55 -27 78 -42 57 -37 -19 4 -114 8 -210 8 -172 0 -176 0 -266 -32 -50 -18 -98 -33 -107 -33 -9 0 -22 -6 -29 -13 -7 -8 -39 -22 -72 -32 -32 -10 -63 -24 -69 -30 -7 -6 -16 -13 -22 -14 -5 -2 -26 -10 -45 -18 -19 -8 -63 -23 -97 -34 -35 -11 -63 -25 -63 -30 0 -7 -11 -9 -27 -5 -21 5 -24 4 -13 -4 12 -7 7 -10 -20 -10 -19 0 -46 -7 -60 -15 -14 -8 -40 -14 -58 -15 -22 0 -31 -4 -26 -11 4 -8 -1 -9 -16 -4 -13 4 -25 3 -29 -3 -3 -6 -51 -18 -106 -28 -55 -10 -101 -21 -103 -26 -2 -4 -17 -8 -33 -8 -16 0 -29 -4 -29 -9 0 -8 -76 -24 -199 -40 -34 -5 -57 -13 -63 -24 -7 -13 -23 -17 -64 -17 -32 0 -53 -4 -49 -9 3 -6 -15 -13 -40 -17 -25 -3 -52 -13 -60 -20 -7 -8 -23 -14 -34 -14 -11 0 -23 -4 -26 -10 -3 -5 -16 -10 -28 -10 -18 0 -19 -2 -7 -10 11 -7 7 -10 -18 -10 -20 0 -31 -4 -27 -10 4 -6 -7 -10 -27 -10 l-33 -1 28 -23 29 -23 -39 -6 c-21 -4 -54 -7 -73 -7 -32 -1 -34 -2 -16 -15 17 -13 14 -14 -30 -18 l-49 -3 55 -2 c73 -3 104 -22 36 -22 -48 0 -49 0 -31 -20 18 -20 17 -20 -18 -20 -36 0 -50 -13 -24 -23 6 -3 -12 -6 -41 -6 -67 -1 -66 -3 99 -110 l124 -81 -60 -1 c-33 0 -53 -3 -45 -6 8 -3 17 -9 20 -13 3 -4 46 -28 95 -55 50 -27 106 -57 125 -68 53 -30 99 -53 163 -82 31 -14 83 -37 115 -51 107 -49 117 -53 172 -69 30 -9 73 -24 95 -32 88 -33 243 -80 375 -114 19 -5 69 -14 110 -20 41 -6 95 -15 120 -20 212 -42 367 -54 705 -54 344 0 439 7 703 55 31 6 93 17 137 24 86 14 249 57 330 87 28 10 88 30 135 45 47 14 104 35 127 45 24 11 47 19 53 19 6 0 18 4 28 9 9 6 58 29 107 51 130 60 279 133 285 139 6 7 26 19 110 67 64 37 230 144 240 154 3 3 21 17 40 30 19 13 37 27 40 30 3 3 39 31 80 63 110 84 491 473 548 559 9 14 37 54 62 89 78 111 180 281 224 374 99 207 151 326 161 376 4 19 15 61 26 94 11 33 24 74 29 91 6 17 10 40 10 52 0 11 4 23 9 26 4 3 11 25 14 48 4 24 11 68 17 98 26 129 32 198 37 430 5 235 0 311 -28 475 -18 105 -49 237 -79 335 -16 52 -37 122 -46 155 -9 33 -25 76 -35 95 -9 19 -25 53 -34 75 -32 74 -76 170 -87 190 -7 11 -28 49 -48 85 -20 36 -48 84 -63 107 -15 24 -27 45 -27 48 0 8 -61 98 -71 105 -4 3 -38 46 -76 97 -37 50 -95 122 -127 160 -84 97 -310 317 -381 371 -33 25 -62 49 -65 52 -3 3 -26 21 -53 40 -26 19 -77 58 -114 87 -36 28 -91 66 -122 82 -87 48 -116 65 -119 74 -2 4 -8 7 -14 7 -6 0 -29 12 -52 28 -22 15 -52 32 -66 39 -14 6 -86 40 -160 76 -185 88 -206 97 -224 97 -9 0 -24 4 -34 9 -73 37 -341 128 -407 137 -22 4 -65 13 -95 21 -30 7 -98 22 -150 33 -52 10 -102 22 -111 25 -12 4 -24 -4 -39 -25 -17 -24 -28 -30 -44 -26 -11 4 -61 11 -111 16 -49 6 -105 13 -122 16 -26 5 -34 2 -40 -12 -10 -27 -34 -43 -66 -44 -16 0 -36 -10 -49 -25 -16 -18 -32 -25 -58 -25 -27 0 -43 -7 -65 -30 -16 -16 -38 -30 -49 -30 -18 0 -18 1 4 25 13 14 21 28 17 31 -3 4 -18 -8 -32 -25 -16 -19 -36 -31 -50 -31 -14 0 -32 -8 -42 -19 -10 -10 -34 -26 -53 -36 -19 -10 -43 -24 -53 -33 -9 -8 -31 -17 -48 -19 -18 -2 -39 -11 -48 -22 -9 -10 -30 -25 -46 -33 -17 -9 -39 -25 -49 -37 -10 -11 -22 -18 -27 -16 -4 3 -16 -6 -27 -20 -11 -14 -24 -25 -29 -25 -4 0 -28 -20 -52 -45 -24 -25 -47 -45 -52 -45 -5 0 -9 -7 -9 -15 0 -8 -6 -15 -12 -15 -7 -1 -31 -24 -53 -52 -22 -28 -50 -62 -62 -77 -13 -14 -23 -32 -23 -38 0 -7 -6 -13 -13 -13 -12 0 -97 -155 -97 -178 0 -6 -6 -17 -12 -24 -40 -42 -97 -217 -122 -378 -23 -140 -20 -410 4 -483 5 -18 17 -69 25 -113 8 -45 23 -105 34 -134 11 -29 18 -57 15 -62 -3 -4 0 -8 5 -8 6 0 11 -6 11 -14 0 -12 92 -207 123 -261 54 -93 314 -385 343 -385 7 0 14 -7 17 -15 4 -8 45 -40 92 -71 47 -32 83 -59 81 -62 -9 -8 -160 82 -257 154 -297 222 -511 514 -628 859 -159 471 -122 967 105 1405 246 474 687 816 1199 930 134 29 140 33 70 41 -61 7 -411 9 -475 2z"/>
</g>
<g id="layer102" fill="#2c355a" stroke="none">
<path d="M6960 9163 c-592 -60 -1152 -343 -1539 -776 -210 -235 -358 -481 -470 -779 l-51 -137 31 -83 c90 -247 236 -490 417 -696 31 -35 57 -73 59 -85 2 -11 -5 -39 -16 -61 -55 -119 -106 -352 -114 -520 -3 -78 -4 -80 -33 -89 -75 -25 -499 -193 -667 -266 -241 -104 -686 -311 -693 -322 -3 -5 49 -9 115 -9 l121 0 0 -30 0 -30 -196 0 -197 0 -388 -197 c-214 -108 -389 -200 -389 -205 0 -4 95 -8 210 -8 l210 0 0 -30 0 -30 -280 0 -280 0 -108 -55 c-59 -30 -195 -102 -302 -160 -107 -58 -228 -122 -267 -143 -40 -20 -73 -40 -73 -44 0 -4 151 -8 335 -8 l335 0 0 -30 0 -30 -402 0 -403 0 -165 -91 c-91 -50 -223 -124 -295 -164 -71 -40 -163 -90 -202 -111 -40 -22 -73 -42 -73 -46 0 -5 234 -8 520 -8 l521 0 440 293 c242 160 443 290 446 289 3 -2 9 1 12 6 7 11 111 76 126 78 5 1 16 3 24 5 16 5 35 -41 76 -176 41 -133 85 -268 93 -285 5 -8 19 -50 33 -92 17 -54 30 -79 44 -84 11 -5 -40 -11 -120 -14 -77 -3 191 -7 595 -8 404 -2 1001 -5 1325 -8 910 -9 1047 7 1339 153 105 52 160 88 239 155 l57 50 96 -62 c52 -34 136 -82 187 -106 55 -27 78 -42 57 -37 -19 4 -114 8 -210 8 -172 0 -176 0 -266 -32 -50 -18 -98 -33 -107 -33 -9 0 -22 -6 -29 -13 -7 -8 -39 -22 -72 -32 -32 -10 -63 -24 -69 -30 -7 -6 -16 -13 -22 -14 -5 -2 -26 -10 -45 -18 -19 -8 -63 -23 -97 -34 -35 -11 -63 -25 -63 -30 0 -7 -11 -9 -27 -5 -21 5 -24 4 -13 -4 12 -7 7 -10 -20 -10 -19 0 -46 -7 -60 -15 -14 -8 -40 -14 -58 -15 -22 0 -31 -4 -26 -11 4 -8 -1 -9 -16 -4 -13 4 -25 3 -29 -3 -3 -6 -51 -18 -106 -28 -55 -10 -101 -21 -103 -26 -2 -4 -17 -8 -33 -8 -16 0 -29 -4 -29 -9 0 -8 -76 -24 -199 -40 -34 -5 -57 -13 -63 -24 -7 -13 -23 -17 -64 -17 -32 0 -53 -4 -49 -9 3 -6 -15 -13 -40 -17 -25 -3 -52 -13 -60 -20 -7 -8 -23 -14 -34 -14 -11 0 -23 -4 -26 -10 -3 -5 -16 -10 -28 -10 -18 0 -19 -2 -7 -10 11 -7 7 -10 -18 -10 -20 0 -31 -4 -27 -10 4 -6 -7 -10 -27 -10 l-33 -1 28 -23 29 -23 -39 -6 c-21 -4 -54 -7 -73 -7 -32 -1 -34 -2 -16 -15 17 -13 14 -14 -30 -18 l-49 -3 55 -2 c73 -3 104 -22 36 -22 -48 0 -49 0 -31 -20 18 -20 17 -20 -18 -20 -36 0 -50 -13 -24 -23 6 -3 -12 -6 -41 -6 -67 -1 -66 -3 99 -110 l124 -81 -60 -1 c-33 0 -53 -3 -45 -6 8 -3 17 -9 20 -13 3 -4 46 -28 95 -55 50 -27 106 -57 125 -68 53 -30 99 -53 163 -82 31 -14 83 -37 115 -51 107 -49 117 -53 172 -69 30 -9 73 -24 95 -32 88 -33 243 -80 375 -114 19 -5 69 -14 110 -20 41 -6 95 -15 120 -20 212 -42 367 -54 705 -54 344 0 439 7 703 55 31 6 93 17 137 24 86 14 249 57 330 87 28 10 88 30 135 45 47 14 104 35 127 45 24 11 47 19 53 19 6 0 18 4 28 9 9 6 58 29 107 51 130 60 279 133 285 139 6 7 26 19 110 67 64 37 230 144 240 154 3 3 21 17 40 30 19 13 37 27 40 30 3 3 39 31 80 63 110 84 491 473 548 559 9 14 37 54 62 89 78 111 180 281 224 374 99 207 151 326 161 376 4 19 15 61 26 94 11 33 24 74 29 91 6 17 10 40 10 52 0 11 4 23 9 26 4 3 11 25 14 48 4 24 11 68 17 98 26 129 32 198 37 430 5 235 0 311 -28 475 -18 105 -49 237 -79 335 -16 52 -37 122 -46 155 -9 33 -25 76 -35 95 -9 19 -25 53 -34 75 -32 74 -76 170 -87 190 -7 11 -28 49 -48 85 -20 36 -48 84 -63 107 -15 24 -27 45 -27 48 0 8 -61 98 -71 105 -4 3 -38 46 -76 97 -37 50 -95 122 -127 160 -84 97 -310 317 -381 371 -33 25 -62 49 -65 52 -3 3 -26 21 -53 40 -26 19 -77 58 -114 87 -36 28 -91 66 -122 82 -87 48 -116 65 -119 74 -2 4 -8 7 -14 7 -6 0 -29 12 -52 28 -22 15 -52 32 -66 39 -14 6 -86 40 -160 76 -185 88 -206 97 -224 97 -9 0 -24 4 -34 9 -73 37 -341 128 -407 137 -22 4 -65 13 -95 21 -30 7 -98 22 -150 33 -52 10 -102 22 -111 25 -12 4 -24 -4 -39 -25 -17 -24 -28 -30 -44 -26 -11 4 -61 11 -111 16 -49 6 -105 13 -122 16 -26 5 -34 2 -40 -12 -10 -27 -34 -43 -66 -44 -16 0 -36 -10 -49 -25 -16 -18 -32 -25 -58 -25 -27 0 -43 -7 -65 -30 -16 -16 -38 -30 -49 -30 -18 0 -18 1 4 25 13 14 21 28 17 31 -3 4 -18 -8 -32 -25 -16 -19 -36 -31 -50 -31 -14 0 -32 -8 -42 -19 -10 -10 -34 -26 -53 -36 -19 -10 -43 -24 -53 -33 -9 -8 -31 -17 -48 -19 -18 -2 -39 -11 -48 -22 -9 -10 -30 -25 -46 -33 -17 -9 -39 -25 -49 -37 -10 -11 -22 -18 -27 -16 -4 3 -16 -6 -27 -20 -11 -14 -24 -25 -29 -25 -4 0 -28 -20 -52 -45 -24 -25 -47 -45 -52 -45 -5 0 -9 -7 -9 -15 0 -8 -6 -15 -12 -15 -7 -1 -31 -24 -53 -52 -22 -28 -50 -62 -62 -77 -13 -14 -23 -32 -23 -38 0 -7 -6 -13 -13 -13 -12 0 -97 -155 -97 -178 0 -6 -6 -17 -12 -24 -40 -42 -97 -217 -122 -378 -23 -140 -20 -410 4 -483 5 -18 17 -69 25 -113 8 -45 23 -105 34 -134 11 -29 18 -57 15 -62 -3 -4 0 -8 5 -8 6 0 11 -6 11 -14 0 -12 92 -207 123 -261 54 -93 314 -385 343 -385 7 0 14 -7 17 -15 4 -8 45 -40 92 -71 47 -32 83 -59 81 -62 -9 -8 -160 82 -257 154 -297 222 -511 514 -628 859 -159 471 -122 967 105 1405 246 474 687 816 1199 930 134 29 140 33 70 41 -61 7 -411 9 -475 2z"/>
</g>
<g id="layer103" fill="#5f1e51" stroke="none">
<path d="M6960 9163 c-592 -60 -1152 -343 -1539 -776 -210 -235 -358 -481 -470 -779 l-51 -137 31 -83 c90 -247 236 -490 417 -696 31 -35 57 -73 59 -85 2 -11 -5 -39 -16 -61 -55 -119 -106 -352 -114 -520 -3 -78 -4 -80 -33 -89 -75 -25 -499 -193 -667 -266 -241 -104 -686 -311 -693 -322 -3 -5 49 -9 115 -9 l121 0 0 -30 0 -30 -196 0 -197 0 -388 -197 c-214 -108 -389 -200 -389 -205 0 -4 95 -8 210 -8 l210 0 0 -30 0 -30 -280 0 -280 0 -108 -55 c-59 -30 -195 -102 -302 -160 -107 -58 -228 -122 -267 -143 -40 -20 -73 -40 -73 -44 0 -4 151 -8 335 -8 l335 0 0 -30 0 -30 -402 0 -403 0 -165 -91 c-91 -50 -223 -124 -295 -164 -71 -40 -163 -90 -202 -111 -40 -22 -73 -42 -73 -46 0 -5 234 -8 520 -8 l521 0 440 293 c242 160 443 290 446 289 3 -2 9 1 12 6 7 11 111 76 126 78 5 1 16 3 24 5 16 5 35 -41 76 -176 41 -133 85 -268 93 -285 5 -8 19 -50 33 -92 17 -54 30 -79 44 -84 11 -5 -40 -11 -120 -14 -77 -3 191 -7 595 -8 404 -2 1001 -5 1325 -8 910 -9 1047 7 1339 153 105 52 160 88 239 155 l57 50 96 -62 c52 -34 136 -82 187 -106 55 -27 78 -42 57 -37 -19 4 -114 8 -210 8 -172 0 -176 0 -266 -32 -50 -18 -98 -33 -107 -33 -9 0 -22 -6 -29 -13 -7 -8 -39 -22 -72 -32 -32 -10 -63 -24 -69 -30 -7 -6 -16 -13 -22 -14 -5 -2 -26 -10 -45 -18 -19 -8 -63 -23 -97 -34 -35 -11 -63 -25 -63 -30 0 -7 -11 -9 -27 -5 -21 5 -24 4 -13 -4 12 -7 7 -10 -20 -10 -19 0 -46 -7 -60 -15 -14 -8 -40 -14 -58 -15 -22 0 -31 -4 -26 -11 4 -8 -1 -9 -16 -4 -13 4 -25 3 -29 -3 -3 -6 -51 -18 -106 -28 -55 -10 -101 -21 -103 -26 -2 -4 -17 -8 -33 -8 -16 0 -29 -4 -29 -9 0 -8 -76 -24 -199 -40 -34 -5 -57 -13 -63 -24 -7 -13 -23 -17 -64 -17 -32 0 -53 -4 -49 -9 3 -6 -15 -13 -40 -17 -25 -3 -52 -13 -60 -20 -7 -8 -23 -14 -34 -14 -11 0 -23 -4 -26 -10 -3 -5 -16 -10 -28 -10 -18 0 -19 -2 -7 -10 11 -7 7 -10 -18 -10 -20 0 -31 -4 -27 -10 4 -6 -7 -10 -27 -10 l-33 -1 28 -23 29 -23 -39 -6 c-21 -4 -54 -7 -73 -7 -32 -1 -34 -2 -16 -15 17 -13 14 -14 -30 -18 l-49 -3 55 -2 c73 -3 104 -22 36 -22 -48 0 -49 0 -31 -20 18 -20 17 -20 -18 -20 -36 0 -50 -13 -24 -23 6 -3 -12 -6 -41 -6 -67 -1 -66 -3 99 -110 l124 -81 -60 -1 c-33 0 -53 -3 -45 -6 8 -3 17 -9 20 -13 3 -4 46 -28 95 -55 50 -27 106 -57 125 -68 53 -30 99 -53 163 -82 31 -14 83 -37 115 -51 107 -49 117 -53 172 -69 30 -9 73 -24 95 -32 88 -33 243 -80 375 -114 19 -5 69 -14 110 -20 41 -6 95 -15 120 -20 212 -42 367 -54 705 -54 344 0 439 7 703 55 31 6 93 17 137 24 86 14 249 57 330 87 28 10 88 30 135 45 47 14 104 35 127 45 24 11 47 19 53 19 6 0 18 4 28 9 9 6 58 29 107 51 130 60 279 133 285 139 6 7 26 19 110 67 64 37 230 144 240 154 3 3 21 17 40 30 19 13 37 27 40 30 3 3 39 31 80 63 110 84 491 473 548 559 9 14 37 54 62 89 78 111 180 281 224 374 99 207 151 326 161 376 4 19 15 61 26 94 11 33 24 74 29 91 6 17 10 40 10 52 0 11 4 23 9 26 4 3 11 25 14 48 4 24 11 68 17 98 26 129 32 198 37 430 5 235 0 311 -28 475 -18 105 -49 237 -79 335 -16 52 -37 122 -46 155 -9 33 -25 76 -35 95 -9 19 -25 53 -34 75 -32 74 -76 170 -87 190 -7 11 -28 49 -48 85 -20 36 -48 84 -63 107 -15 24 -27 45 -27 48 0 8 -61 98 -71 105 -4 3 -38 46 -76 97 -37 50 -95 122 -127 160 -84 97 -310 317 -381 371 -33 25 -62 49 -65 52 -3 3 -26 21 -53 40 -26 19 -77 58 -114 87 -36 28 -91 66 -122 82 -87 48 -116 65 -119 74 -2 4 -8 7 -14 7 -6 0 -29 12 -52 28 -22 15 -52 32 -66 39 -14 6 -86 40 -160 76 -185 88 -206 97 -224 97 -9 0 -24 4 -34 9 -73 37 -341 128 -407 137 -22 4 -65 13 -95 21 -30 7 -98 22 -150 33 -52 10 -102 22 -111 25 -12 4 -24 -4 -39 -25 -17 -24 -28 -30 -44 -26 -11 4 -61 11 -111 16 -49 6 -105 13 -122 16 -26 5 -34 2 -40 -12 -10 -27 -34 -43 -66 -44 -16 0 -36 -10 -49 -25 -16 -18 -32 -25 -58 -25 -27 0 -43 -7 -65 -30 -16 -16 -38 -30 -49 -30 -18 0 -18 1 4 25 13 14 21 28 17 31 -3 4 -18 -8 -32 -25 -16 -19 -36 -31 -50 -31 -14 0 -32 -8 -42 -19 -10 -10 -34 -26 -53 -36 -19 -10 -43 -24 -53 -33 -9 -8 -31 -17 -48 -19 -18 -2 -39 -11 -48 -22 -9 -10 -30 -25 -46 -33 -17 -9 -39 -25 -49 -37 -10 -11 -22 -18 -27 -16 -4 3 -16 -6 -27 -20 -11 -14 -24 -25 -29 -25 -4 0 -28 -20 -52 -45 -24 -25 -47 -45 -52 -45 -5 0 -9 -7 -9 -15 0 -8 -6 -15 -12 -15 -7 -1 -31 -24 -53 -52 -22 -28 -50 -62 -62 -77 -13 -14 -23 -32 -23 -38 0 -7 -6 -13 -13 -13 -12 0 -97 -155 -97 -178 0 -6 -6 -17 -12 -24 -40 -42 -97 -217 -122 -378 -23 -140 -20 -410 4 -483 5 -18 17 -69 25 -113 8 -45 23 -105 34 -134 11 -29 18 -57 15 -62 -3 -4 0 -8 5 -8 6 0 11 -6 11 -14 0 -12 92 -207 123 -261 54 -93 314 -385 343 -385 7 0 14 -7 17 -15 4 -8 45 -40 92 -71 47 -32 83 -59 81 -62 -9 -8 -160 82 -257 154 -297 222 -511 514 -628 859 -159 471 -122 967 105 1405 246 474 687 816 1199 930 134 29 140 33 70 41 -61 7 -411 9 -475 2z m1859 -3473 c44 -87 74 -174 96 -278 23 -112 21 -138 -15 -159 -40 -23 -57 -73 -37 -112 l15 -30 -87 -79 c-159 -144 -306 -247 -501 -350 -103 -55 -257 -120 -332 -143 -25 -7 -27 -6 -18 11 5 10 18 21 29 25 19 6 226 216 297 301 41 51 143 215 182 294 67 140 133 349 164 528 l13 73 55 34 55 34 23 -37 c13 -20 40 -71 61 -112z"/>
</g>
<g id="layer104" fill="#304164" stroke="none">
<path d="M6970 9163 c-480 -49 -904 -222 -1275 -520 -355 -285 -650 -712 -775 -1124 l-17 -57 47 -118 c100 -253 216 -441 392 -641 35 -40 65 -83 66 -95 1 -13 -7 -41 -17 -63 -56 -120 -106 -352 -114 -519 -3 -78 -4 -80 -33 -89 -75 -25 -499 -193 -667 -266 -241 -104 -686 -311 -693 -322 -3 -5 49 -9 115 -9 l121 0 0 -30 0 -30 -196 0 -197 0 -388 -197 c-214 -108 -389 -200 -389 -205 0 -4 95 -8 210 -8 l210 0 0 -30 0 -30 -280 0 -280 0 -108 -55 c-59 -30 -195 -102 -302 -160 -107 -58 -228 -122 -267 -143 -40 -20 -73 -40 -73 -44 0 -4 151 -8 335 -8 l335 0 0 -30 0 -30 -402 0 -403 0 -165 -91 c-91 -50 -223 -124 -295 -164 -71 -40 -163 -90 -202 -111 -40 -22 -73 -42 -73 -46 0 -5 235 -8 521 -8 l522 0 301 202 c474 317 793 524 1101 712 55 34 112 70 128 80 15 10 27 16 27 13 0 -3 -16 -15 -35 -27 -19 -12 -35 -29 -35 -38 0 -10 12 -49 26 -87 14 -39 39 -113 55 -165 32 -102 75 -233 138 -425 22 -66 45 -140 52 -165 16 -58 20 -62 71 -71 26 -4 -37 -8 -157 -9 -110 -2 203 -7 695 -12 829 -8 1458 -4 1590 8 155 14 319 63 474 141 104 51 159 88 239 156 l57 49 95 -62 c53 -34 137 -82 188 -106 55 -27 78 -42 57 -37 -19 4 -114 8 -210 8 -172 0 -176 0 -266 -32 -50 -18 -98 -33 -107 -33 -9 0 -22 -6 -29 -13 -7 -8 -39 -22 -72 -32 -32 -10 -63 -24 -69 -30 -7 -6 -16 -13 -22 -14 -5 -2 -26 -10 -45 -18 -19 -8 -63 -23 -97 -34 -35 -11 -63 -25 -63 -30 0 -7 -11 -9 -27 -5 -21 5 -24 4 -13 -4 12 -7 7 -10 -20 -10 -19 0 -46 -7 -60 -15 -14 -8 -40 -14 -58 -15 -22 0 -31 -4 -26 -11 4 -8 -1 -9 -16 -4 -13 4 -25 3 -29 -3 -3 -6 -51 -18 -106 -28 -55 -10 -101 -21 -103 -26 -2 -4 -17 -8 -33 -8 -16 0 -29 -4 -29 -9 0 -8 -76 -24 -199 -40 -34 -5 -57 -13 -63 -24 -7 -13 -23 -17 -64 -17 -32 0 -53 -4 -49 -9 3 -6 -15 -13 -40 -17 -25 -3 -52 -13 -60 -20 -7 -8 -23 -14 -34 -14 -11 0 -23 -4 -26 -10 -3 -5 -16 -10 -28 -10 -18 0 -19 -2 -7 -10 11 -7 7 -10 -18 -10 -20 0 -31 -4 -27 -10 4 -6 -7 -10 -27 -10 l-33 -1 28 -23 29 -23 -39 -6 c-21 -4 -54 -7 -73 -7 -32 -1 -34 -2 -16 -15 17 -13 14 -14 -30 -18 l-49 -3 55 -2 c73 -3 104 -22 36 -22 -48 0 -49 0 -31 -20 18 -20 17 -20 -18 -20 -36 0 -50 -13 -24 -23 6 -3 -12 -6 -41 -6 -67 -1 -66 -3 99 -110 l124 -81 -60 -1 c-33 0 -53 -3 -45 -6 8 -3 17 -9 20 -13 3 -4 46 -28 95 -55 50 -27 106 -57 125 -68 53 -30 99 -53 163 -82 31 -14 83 -37 115 -51 107 -49 117 -53 172 -69 30 -9 73 -24 95 -32 66 -25 219 -73 295 -92 19 -5 53 -14 75 -20 22 -6 74 -16 115 -22 41 -6 95 -15 120 -20 212 -42 367 -54 705 -54 344 0 439 7 703 55 31 6 93 17 137 24 86 14 249 57 330 87 28 10 88 30 135 45 47 14 104 35 127 45 24 11 47 19 53 19 6 0 18 4 28 9 9 6 58 29 107 51 130 60 279 133 285 139 6 7 26 19 110 67 64 37 230 144 240 154 3 3 21 17 40 30 19 13 37 27 40 30 3 3 39 31 80 63 110 84 491 473 548 559 9 14 37 54 62 89 78 111 180 281 224 374 99 207 151 326 161 376 4 19 15 61 26 94 11 33 24 74 29 91 6 17 10 40 10 52 0 11 4 23 9 26 4 3 11 25 14 48 4 24 11 68 17 98 26 129 32 198 37 430 5 235 0 311 -28 475 -18 105 -49 237 -79 335 -16 52 -37 122 -46 155 -9 33 -25 76 -35 95 -9 19 -25 53 -34 75 -32 74 -76 170 -87 190 -7 11 -28 49 -48 85 -20 36 -48 84 -63 107 -15 24 -27 45 -27 48 0 8 -61 98 -71 105 -4 3 -38 46 -76 97 -37 50 -95 122 -127 160 -84 97 -310 317 -381 371 -33 25 -62 49 -65 52 -3 3 -26 21 -53 40 -26 19 -77 58 -114 87 -36 28 -91 66 -122 82 -87 48 -116 65 -119 74 -2 4 -8 7 -14 7 -6 0 -29 12 -52 28 -22 15 -52 32 -66 39 -14 6 -86 40 -160 76 -185 88 -206 97 -224 97 -9 0 -24 4 -34 9 -73 37 -341 128 -407 137 -22 4 -65 13 -95 21 -30 7 -98 22 -150 33 -52 10 -102 22 -111 25 -12 4 -24 -4 -39 -25 -17 -24 -28 -30 -44 -26 -11 4 -61 11 -111 16 -49 6 -105 13 -122 16 -26 5 -34 2 -40 -12 -10 -27 -34 -43 -66 -44 -16 0 -36 -10 -49 -25 -16 -18 -32 -25 -58 -25 -27 0 -43 -7 -65 -30 -16 -16 -38 -30 -49 -30 -18 0 -18 1 4 25 13 14 21 28 17 31 -3 4 -18 -8 -32 -25 -16 -19 -36 -31 -50 -31 -14 0 -32 -8 -42 -19 -10 -10 -34 -26 -53 -36 -19 -10 -43 -24 -53 -33 -9 -8 -31 -17 -48 -19 -18 -2 -39 -11 -48 -22 -9 -10 -30 -25 -46 -33 -17 -9 -39 -25 -49 -37 -10 -11 -22 -18 -27 -16 -4 3 -16 -6 -27 -20 -11 -14 -24 -25 -29 -25 -4 0 -28 -20 -52 -45 -24 -25 -47 -45 -52 -45 -5 0 -9 -7 -9 -15 0 -8 -6 -15 -12 -15 -7 -1 -31 -24 -53 -52 -22 -28 -50 -62 -62 -77 -13 -14 -23 -32 -23 -38 0 -7 -6 -13 -13 -13 -12 0 -97 -155 -97 -178 0 -6 -6 -17 -12 -24 -40 -42 -97 -217 -122 -378 -23 -140 -20 -410 4 -483 5 -18 17 -69 25 -113 8 -45 23 -105 34 -134 11 -29 18 -57 15 -62 -3 -4 0 -8 5 -8 6 0 11 -6 11 -14 0 -12 92 -207 123 -261 54 -93 314 -385 343 -385 7 0 14 -7 17 -15 4 -8 45 -40 92 -71 47 -32 83 -59 81 -62 -9 -8 -160 82 -259 156 -119 88 -290 255 -369 362 -303 410 -422 946 -318 1439 146 692 683 1240 1365 1391 134 29 140 33 70 41 -61 7 -401 9 -465 2z m-1465 -2623 c10 -11 16 -20 13 -20 -3 0 -13 9 -23 20 -10 11 -16 20 -13 20 3 0 13 -9 23 -20z m70 -60 c3 -5 4 -10 1 -10 -3 0 -8 5 -11 10 -3 6 -4 10 -1 10 3 0 8 -4 11 -10z m50 -40 c3 -5 4 -10 1 -10 -3 0 -8 5 -11 10 -3 6 -4 10 -1 10 3 0 8 -4 11 -10z m3194 -750 c56 -110 93 -236 115 -396 2 -15 -7 -26 -30 -39 -44 -24 -62 -73 -41 -115 l15 -29 -67 -64 c-151 -142 -335 -272 -519 -365 -111 -57 -263 -122 -334 -143 -25 -7 -27 -6 -18 11 5 10 18 21 29 25 19 6 226 216 297 301 41 51 143 215 182 294 67 140 133 349 164 528 l13 73 55 34 55 34 23 -37 c13 -20 40 -71 61 -112z m-4999 -744 c0 -3 -5 -8 -12 -12 -7 -4 -8 -3 -4 4 7 12 16 16 16 8z"/>
</g>
<g id="layer105" fill="#721955" stroke="none">
<path d="M6970 9163 c-480 -49 -904 -222 -1275 -520 -355 -285 -650 -712 -775 -1124 l-17 -57 47 -120 c117 -293 267 -520 495 -747 55 -55 79 -83 54 -63 l-45 37 -13 -37 c-7 -20 -16 -46 -21 -57 -48 -108 -89 -296 -92 -425 l-3 -84 -80 -29 c-171 -62 -489 -188 -668 -266 -240 -104 -686 -311 -693 -322 -3 -5 49 -9 115 -9 l121 0 0 -30 0 -30 -196 0 -197 0 -388 -197 c-214 -108 -389 -200 -389 -205 0 -4 95 -8 210 -8 l210 0 0 -30 0 -30 -280 0 -280 0 -108 -55 c-59 -30 -195 -102 -302 -160 -107 -58 -228 -122 -267 -143 -40 -20 -73 -40 -73 -44 0 -4 151 -8 335 -8 l335 0 0 -30 0 -30 -402 0 -403 0 -165 -91 c-91 -50 -223 -124 -295 -164 -71 -40 -163 -90 -202 -111 -40 -22 -73 -42 -73 -46 0 -5 235 -8 521 -8 l522 0 301 202 c474 317 793 524 1101 712 55 34 112 70 128 80 15 10 27 16 27 13 0 -3 -16 -15 -35 -27 -19 -12 -35 -29 -35 -38 0 -10 12 -49 26 -87 14 -39 39 -113 55 -165 32 -102 75 -233 138 -425 22 -66 45 -140 52 -165 16 -58 20 -62 71 -71 26 -4 -37 -8 -157 -9 -110 -2 203 -7 695 -12 829 -8 1458 -4 1590 8 155 14 319 63 474 141 104 51 159 88 239 156 l57 49 95 -62 c53 -34 137 -82 188 -106 55 -27 78 -42 57 -37 -19 4 -114 8 -210 8 -172 0 -176 0 -266 -32 -50 -18 -98 -33 -107 -33 -9 0 -22 -6 -29 -13 -7 -8 -39 -22 -72 -32 -32 -10 -63 -24 -69 -30 -7 -6 -16 -13 -22 -14 -5 -2 -26 -10 -45 -18 -19 -8 -63 -23 -97 -34 -35 -11 -63 -25 -63 -30 0 -7 -11 -9 -27 -5 -21 5 -24 4 -13 -4 12 -7 7 -10 -20 -10 -19 0 -46 -7 -60 -15 -14 -8 -40 -14 -58 -15 -22 0 -31 -4 -26 -11 4 -8 -1 -9 -16 -4 -13 4 -25 3 -29 -3 -3 -6 -51 -18 -106 -28 -55 -10 -101 -21 -103 -26 -2 -4 -17 -8 -33 -8 -16 0 -29 -4 -29 -9 0 -8 -76 -24 -199 -40 -34 -5 -57 -13 -63 -24 -7 -13 -23 -17 -64 -17 -32 0 -53 -4 -49 -9 3 -6 -15 -13 -40 -17 -25 -3 -52 -13 -60 -20 -7 -8 -23 -14 -34 -14 -11 0 -23 -4 -26 -10 -3 -5 -16 -10 -28 -10 -18 0 -19 -2 -7 -10 11 -7 7 -10 -18 -10 -20 0 -31 -4 -27 -10 4 -6 -7 -10 -27 -10 l-33 -1 28 -23 29 -23 -39 -6 c-21 -4 -54 -7 -73 -7 -32 -1 -34 -2 -16 -15 17 -13 14 -14 -30 -18 l-49 -3 55 -2 c73 -3 104 -22 36 -22 -48 0 -49 0 -31 -20 18 -20 17 -20 -18 -20 -36 0 -50 -13 -24 -23 6 -3 -12 -6 -41 -6 -67 -1 -66 -3 99 -110 l124 -81 -60 -1 c-33 0 -53 -3 -45 -6 8 -3 17 -9 20 -13 3 -4 46 -28 95 -55 50 -27 106 -57 125 -68 53 -30 99 -53 163 -82 31 -14 83 -37 115 -51 107 -49 117 -53 172 -69 30 -9 73 -24 95 -32 66 -25 219 -73 295 -92 19 -5 53 -14 75 -20 22 -6 74 -16 115 -22 41 -6 95 -15 120 -20 212 -42 367 -54 705 -54 344 0 439 7 703 55 31 6 93 17 137 24 86 14 249 57 330 87 28 10 88 30 135 45 47 14 104 35 127 45 24 11 47 19 53 19 6 0 18 4 28 9 9 6 58 29 107 51 130 60 279 133 285 139 6 7 26 19 110 67 64 37 230 144 240 154 3 3 21 17 40 30 19 13 37 27 40 30 3 3 39 31 80 63 110 84 491 473 548 559 9 14 37 54 62 89 78 111 180 281 224 374 99 207 151 326 161 376 4 19 15 61 26 94 11 33 24 74 29 91 6 17 10 40 10 52 0 11 4 23 9 26 4 3 11 25 14 48 4 24 11 68 17 98 26 129 32 198 37 430 5 235 0 311 -28 475 -18 105 -49 237 -79 335 -16 52 -37 122 -46 155 -9 33 -25 76 -35 95 -9 19 -25 53 -34 75 -32 74 -76 170 -87 190 -7 11 -28 49 -48 85 -20 36 -48 84 -63 107 -15 24 -27 45 -27 48 0 8 -61 98 -71 105 -4 3 -38 46 -76 97 -37 50 -95 122 -127 160 -84 97 -310 317 -381 371 -33 25 -62 49 -65 52 -3 3 -26 21 -53 40 -26 19 -77 58 -114 87 -36 28 -91 66 -122 82 -87 48 -116 65 -119 74 -2 4 -8 7 -14 7 -6 0 -29 12 -52 28 -22 15 -52 32 -66 39 -14 6 -86 40 -160 76 -185 88 -206 97 -224 97 -9 0 -24 4 -34 9 -73 37 -341 128 -407 137 -22 4 -65 13 -95 21 -30 7 -98 22 -150 33 -52 10 -102 22 -111 25 -12 4 -24 -4 -39 -25 -17 -24 -28 -30 -44 -26 -11 4 -61 11 -111 16 -49 6 -105 13 -122 16 -26 5 -34 2 -40 -12 -10 -27 -34 -43 -66 -44 -16 0 -36 -10 -49 -25 -16 -18 -32 -25 -58 -25 -27 0 -43 -7 -65 -30 -16 -16 -38 -30 -49 -30 -18 0 -18 1 4 25 13 14 21 28 17 31 -3 4 -18 -8 -32 -25 -16 -19 -36 -31 -50 -31 -14 0 -32 -8 -42 -19 -10 -10 -34 -26 -53 -36 -19 -10 -43 -24 -53 -33 -9 -8 -31 -17 -48 -19 -18 -2 -39 -11 -48 -22 -9 -10 -30 -25 -46 -33 -17 -9 -39 -25 -49 -37 -10 -11 -22 -18 -27 -16 -4 3 -16 -6 -27 -20 -11 -14 -24 -25 -29 -25 -4 0 -28 -20 -52 -45 -24 -25 -47 -45 -52 -45 -5 0 -9 -7 -9 -15 0 -8 -6 -15 -12 -15 -7 -1 -31 -24 -53 -52 -22 -28 -50 -62 -62 -77 -13 -14 -23 -32 -23 -38 0 -7 -6 -13 -13 -13 -12 0 -97 -155 -97 -178 0 -6 -6 -17 -12 -24 -40 -42 -97 -217 -122 -378 -23 -140 -20 -410 4 -483 5 -18 17 -69 25 -113 8 -45 23 -105 34 -134 11 -29 18 -57 15 -62 -3 -4 0 -8 5 -8 6 0 11 -6 11 -14 0 -12 92 -207 123 -261 54 -93 314 -385 343 -385 7 0 14 -7 17 -15 4 -8 45 -40 92 -71 47 -32 83 -59 81 -62 -9 -8 -160 82 -259 156 -119 88 -290 255 -369 362 -303 410 -422 946 -318 1439 146 692 683 1240 1365 1391 134 29 140 33 70 41 -61 7 -401 9 -465 2z m-1389 -2690 c13 -16 12 -17 -3 -4 -10 7 -18 15 -18 17 0 8 8 3 21 -13z m50 -40 c13 -16 12 -17 -3 -4 -10 7 -18 15 -18 17 0 8 8 3 21 -13z m44 -33 c3 -5 4 -10 1 -10 -3 0 -8 5 -11 10 -3 6 -4 10 -1 10 3 0 8 -4 11 -10z m3097 -622 c95 -166 133 -277 162 -486 2 -15 -2 -26 -13 -29 -9 -3 -26 -15 -38 -26 -25 -22 -31 -74 -13 -107 8 -15 -2 -29 -58 -82 -222 -209 -489 -373 -793 -487 -246 -92 -558 -153 -682 -134 l-62 9 40 9 c22 4 65 19 95 33 30 13 71 31 90 39 75 32 196 96 225 119 46 37 47 38 97 72 51 35 194 172 252 242 60 73 166 238 203 317 52 111 133 371 125 404 0 3 34 20 76 37 42 18 115 54 162 81 47 27 87 49 90 50 3 1 22 -27 42 -61z m-4952 -832 c0 -3 -5 -8 -12 -12 -7 -4 -8 -3 -4 4 7 12 16 16 16 8z m3287 -533 c-4 -3 -10 -3 -14 0 -3 4 0 7 7 7 7 0 10 -3 7 -7z m176 0 c-7 -2 -19 -2 -25 0 -7 3 -2 5 12 5 14 0 19 -2 13 -5z"/>
<path d="M5435 6580 c3 -5 8 -10 11 -10 3 0 2 5 -1 10 -3 6 -8 10 -11 10 -3 0 -2 -4 1 -10z"/>
</g>
<g id="layer106" fill="#304d73" stroke="none">
<path d="M6985 9164 c-357 -45 -576 -106 -840 -235 -562 -274 -998 -767 -1206 -1362 l-34 -96 25 -73 c37 -110 151 -335 226 -449 89 -136 188 -252 325 -384 l114 -109 -85 69 c-47 38 -79 61 -71 52 14 -17 11 -30 -20 -102 -49 -116 -88 -296 -91 -425 l-3 -84 -80 -29 c-171 -62 -489 -188 -668 -266 -240 -104 -686 -311 -693 -322 -3 -5 49 -9 115 -9 l121 0 0 -30 0 -30 -196 0 -197 0 -388 -197 c-214 -108 -389 -200 -389 -205 0 -4 95 -8 210 -8 l210 0 0 -30 0 -30 -280 0 -280 0 -108 -55 c-59 -30 -195 -102 -302 -160 -107 -58 -228 -122 -267 -143 -40 -20 -73 -40 -73 -44 0 -4 151 -8 335 -8 l335 0 0 -30 0 -30 -402 0 -403 0 -165 -91 c-91 -50 -223 -124 -295 -164 -71 -40 -163 -90 -202 -111 -40 -22 -73 -42 -73 -46 0 -5 234 -8 521 -8 l520 0 442 294 c455 302 863 565 1117 721 80 48 183 112 230 140 127 78 302 180 330 194 23 11 24 11 6 -3 -22 -18 -21 -22 33 -176 22 -63 40 -123 41 -133 0 -9 4 -25 9 -35 9 -17 57 -159 113 -332 17 -52 50 -153 75 -225 53 -157 86 -258 111 -345 l19 -65 44 -6 c24 -3 -57 -7 -181 -9 -190 -3 -152 -5 240 -12 401 -8 1235 -3 1310 7 14 2 45 6 70 9 50 6 95 15 155 30 66 16 206 70 280 108 67 35 160 92 175 108 3 3 29 25 58 49 l52 43 96 -62 c52 -34 136 -82 187 -106 55 -27 78 -42 57 -37 -19 4 -114 8 -210 8 -172 0 -176 0 -266 -32 -50 -18 -98 -33 -107 -33 -9 0 -22 -6 -29 -13 -7 -8 -39 -22 -72 -32 -32 -10 -63 -24 -69 -30 -7 -6 -14 -12 -17 -12 -3 0 -23 -8 -45 -18 -22 -9 -68 -25 -102 -36 -35 -11 -63 -25 -63 -30 0 -7 -11 -9 -27 -5 -21 5 -24 4 -13 -4 12 -7 7 -10 -20 -10 -19 0 -46 -7 -60 -15 -14 -8 -40 -14 -58 -15 -22 0 -31 -4 -26 -11 4 -8 -1 -9 -16 -4 -13 4 -25 3 -29 -3 -3 -6 -51 -18 -106 -28 -55 -10 -101 -21 -103 -26 -2 -4 -17 -8 -33 -8 -16 0 -29 -4 -29 -9 0 -8 -76 -24 -199 -40 -34 -5 -57 -13 -63 -24 -7 -13 -23 -17 -64 -17 -32 0 -53 -4 -49 -9 3 -6 -15 -13 -40 -17 -25 -3 -52 -13 -60 -20 -7 -8 -23 -14 -34 -14 -11 0 -23 -4 -26 -10 -3 -5 -16 -10 -28 -10 -18 0 -19 -2 -7 -10 11 -7 7 -10 -18 -10 -20 0 -31 -4 -27 -10 4 -6 -7 -10 -27 -10 l-33 -1 28 -23 29 -23 -39 -6 c-21 -4 -54 -7 -73 -7 -32 -1 -34 -2 -16 -15 17 -13 14 -14 -30 -18 l-49 -3 55 -2 c73 -3 104 -22 36 -22 -48 0 -49 0 -31 -20 18 -20 17 -20 -18 -20 -36 0 -50 -13 -24 -23 6 -3 -12 -6 -41 -6 -67 -1 -66 -3 99 -110 l124 -81 -60 -1 c-33 0 -53 -3 -45 -6 8 -3 17 -9 20 -13 3 -4 46 -28 95 -55 50 -27 106 -57 125 -68 53 -30 99 -53 163 -82 31 -14 83 -37 115 -51 107 -49 117 -53 172 -69 30 -9 73 -24 95 -32 48 -18 97 -34 190 -62 66 -20 92 -27 183 -51 20 -5 71 -15 112 -21 41 -6 95 -15 120 -20 212 -42 367 -54 705 -54 344 0 439 7 703 55 31 6 93 17 137 24 86 14 249 57 330 87 28 10 88 30 135 45 47 14 104 35 127 45 24 11 47 19 53 19 6 0 18 4 28 9 9 6 58 29 107 51 130 60 279 133 285 139 6 7 26 19 110 67 64 37 230 144 240 154 3 3 21 17 40 30 19 13 37 27 40 30 3 3 39 31 80 63 110 84 491 473 548 559 9 14 37 54 62 89 78 111 180 281 224 374 99 207 151 326 161 376 4 19 15 61 26 94 11 33 24 74 29 91 6 17 10 40 10 52 0 11 4 23 9 26 4 3 11 25 14 48 4 24 11 68 17 98 26 129 32 198 37 430 5 235 0 311 -28 475 -18 105 -49 237 -79 335 -16 52 -37 122 -46 155 -9 33 -25 76 -35 95 -9 19 -25 53 -34 75 -32 74 -76 170 -87 190 -7 11 -28 49 -48 85 -20 36 -48 84 -63 107 -15 24 -27 45 -27 48 0 8 -61 98 -71 105 -4 3 -38 46 -76 97 -37 50 -95 122 -127 160 -84 97 -310 317 -381 371 -33 25 -62 49 -65 52 -3 3 -26 21 -53 40 -26 19 -77 58 -114 87 -36 28 -91 66 -122 82 -87 48 -116 65 -119 74 -2 4 -8 7 -14 7 -6 0 -29 12 -52 28 -22 15 -52 32 -66 39 -14 6 -86 40 -160 76 -185 88 -206 97 -224 97 -9 0 -24 4 -34 9 -73 37 -341 128 -407 137 -22 4 -65 13 -95 21 -30 7 -98 22 -150 33 -52 10 -102 22 -111 25 -12 4 -24 -4 -39 -25 -17 -24 -28 -30 -44 -26 -11 4 -61 11 -111 16 -49 6 -105 13 -122 16 -26 5 -34 2 -40 -12 -10 -27 -34 -43 -66 -44 -16 0 -36 -10 -49 -25 -16 -18 -32 -25 -58 -25 -27 0 -43 -7 -65 -30 -16 -16 -38 -30 -49 -30 -18 0 -18 1 4 25 13 14 21 28 17 31 -3 4 -18 -8 -32 -25 -16 -19 -36 -31 -50 -31 -14 0 -32 -8 -42 -19 -10 -10 -34 -26 -53 -36 -19 -10 -43 -24 -53 -33 -9 -8 -31 -17 -48 -19 -18 -2 -39 -11 -48 -22 -9 -10 -30 -25 -46 -33 -17 -9 -39 -25 -49 -37 -10 -11 -22 -18 -27 -16 -4 3 -16 -6 -27 -20 -11 -14 -24 -25 -29 -25 -4 0 -28 -20 -52 -45 -24 -25 -47 -45 -52 -45 -5 0 -9 -7 -9 -15 0 -8 -6 -15 -12 -15 -7 -1 -31 -24 -53 -52 -22 -28 -50 -62 -62 -77 -13 -14 -23 -32 -23 -38 0 -7 -6 -13 -13 -13 -12 0 -97 -155 -97 -178 0 -6 -6 -17 -12 -24 -40 -42 -97 -217 -122 -378 -23 -140 -20 -410 4 -483 5 -18 17 -69 25 -113 8 -45 23 -105 34 -134 11 -29 18 -57 15 -62 -3 -4 0 -8 5 -8 6 0 11 -6 11 -14 0 -12 92 -207 123 -261 54 -93 314 -385 343 -385 7 0 14 -7 17 -15 4 -8 45 -40 92 -71 47 -32 83 -59 81 -62 -9 -9 -161 83 -259 157 -55 42 -119 90 -141 107 -58 44 -182 186 -259 296 -157 226 -257 473 -308 768 -20 114 -17 431 5 555 23 130 75 308 120 413 182 432 561 803 993 972 99 39 254 84 331 96 59 9 61 19 7 25 -57 6 -405 8 -450 3z m-1360 -2724 c10 -11 16 -20 13 -20 -3 0 -13 9 -23 20 -10 11 -16 20 -13 20 3 0 13 -9 23 -20z m46 -37 c13 -16 12 -17 -3 -4 -10 7 -18 15 -18 17 0 8 8 3 21 -13z m3101 -625 c95 -166 133 -277 162 -486 2 -15 -2 -26 -13 -29 -9 -3 -26 -15 -38 -26 -25 -22 -31 -74 -13 -107 8 -15 -2 -29 -63 -86 -218 -207 -478 -366 -788 -482 -246 -92 -558 -154 -682 -135 l-62 9 40 9 c22 4 65 19 95 33 30 13 71 31 90 39 75 32 196 96 225 119 46 37 47 38 97 72 51 35 194 172 252 242 60 73 166 238 203 317 52 111 133 371 125 404 0 3 34 20 76 37 42 18 115 54 162 81 47 27 87 49 90 50 3 1 22 -27 42 -61z m-1665 -1365 c-4 -3 -10 -3 -14 0 -3 4 0 7 7 7 7 0 10 -3 7 -7z m176 0 c-7 -2 -19 -2 -25 0 -7 3 -2 5 12 5 14 0 19 -2 13 -5z"/>
</g>
<g id="layer107" fill="#5d5c5e" stroke="none">
<path d="M6985 9164 c-357 -45 -576 -106 -840 -235 -562 -274 -998 -767 -1206 -1362 l-34 -96 25 -73 c37 -110 151 -335 226 -449 117 -178 299 -376 461 -503 35 -27 60 -52 58 -57 -3 -4 0 -11 6 -15 8 -4 9 -3 5 4 -4 7 -2 12 3 12 15 0 14 -10 -2 -29 -13 -15 -23 -45 -47 -138 -5 -21 -12 -68 -15 -105 l-7 -68 29 -1 c15 0 -3 -7 -42 -15 -328 -70 -800 -251 -1465 -560 -138 -64 -253 -121 -256 -125 -3 -5 49 -9 115 -9 l121 0 0 -30 0 -30 -196 0 -197 0 -388 -197 c-214 -108 -389 -200 -389 -205 0 -4 95 -8 210 -8 l210 0 0 -30 0 -30 -280 0 -280 0 -108 -55 c-59 -30 -195 -102 -302 -160 -107 -58 -228 -122 -267 -143 -40 -20 -73 -40 -73 -44 0 -4 151 -8 335 -8 l335 0 0 -30 0 -30 -402 0 -403 0 -165 -91 c-91 -50 -223 -124 -295 -164 -71 -40 -163 -90 -202 -111 -40 -22 -73 -42 -73 -46 0 -5 234 -8 521 -8 l520 0 442 294 c455 302 863 565 1117 721 80 48 183 112 230 140 127 78 302 180 330 194 23 11 24 11 6 -3 -22 -18 -21 -22 33 -176 22 -63 40 -123 41 -133 0 -9 4 -25 9 -35 9 -17 57 -159 113 -332 17 -52 50 -153 75 -225 53 -157 86 -258 111 -345 l19 -65 44 -6 c24 -3 -57 -7 -181 -9 -190 -3 -152 -5 240 -12 401 -8 1235 -3 1310 7 14 2 45 6 70 9 50 6 95 15 155 30 66 16 206 70 280 108 67 35 160 92 175 108 3 3 29 25 58 49 l52 43 96 -62 c52 -34 136 -82 187 -106 55 -27 78 -42 57 -37 -19 4 -114 8 -210 8 -172 0 -176 0 -266 -32 -50 -18 -98 -33 -107 -33 -9 0 -22 -6 -29 -13 -7 -8 -39 -22 -72 -32 -32 -10 -63 -24 -69 -30 -7 -6 -14 -12 -17 -12 -3 0 -23 -8 -45 -18 -22 -9 -68 -25 -102 -36 -35 -11 -63 -25 -63 -30 0 -7 -11 -9 -27 -5 -21 5 -24 4 -13 -4 12 -7 7 -10 -20 -10 -19 0 -46 -7 -60 -15 -14 -8 -40 -14 -58 -15 -22 0 -31 -4 -26 -11 4 -8 -1 -9 -16 -4 -13 4 -25 3 -29 -3 -3 -6 -51 -18 -106 -28 -55 -10 -101 -21 -103 -26 -2 -4 -17 -8 -33 -8 -16 0 -29 -4 -29 -9 0 -8 -76 -24 -199 -40 -34 -5 -57 -13 -63 -24 -7 -13 -23 -17 -64 -17 -32 0 -53 -4 -49 -9 3 -6 -15 -13 -40 -17 -25 -3 -52 -13 -60 -20 -7 -8 -23 -14 -34 -14 -11 0 -23 -4 -26 -10 -3 -5 -16 -10 -28 -10 -18 0 -19 -2 -7 -10 11 -7 7 -10 -18 -10 -20 0 -31 -4 -27 -10 4 -6 -7 -10 -27 -10 l-33 -1 28 -23 29 -23 -39 -6 c-21 -4 -54 -7 -73 -7 -32 -1 -34 -2 -16 -15 17 -13 14 -14 -30 -18 l-49 -3 55 -2 c73 -3 104 -22 36 -22 -48 0 -49 0 -31 -20 18 -20 17 -20 -18 -20 -36 0 -50 -13 -24 -23 6 -3 -12 -6 -41 -6 -67 -1 -66 -3 99 -110 l124 -81 -60 -1 c-33 0 -53 -3 -45 -6 8 -3 17 -9 20 -13 3 -4 46 -28 95 -55 50 -27 106 -57 125 -68 53 -30 99 -53 163 -82 31 -14 83 -37 115 -51 107 -49 117 -53 172 -69 30 -9 73 -24 95 -32 48 -18 97 -34 190 -62 66 -20 92 -27 183 -51 20 -5 71 -15 112 -21 41 -6 95 -15 120 -20 212 -42 367 -54 705 -54 344 0 439 7 703 55 31 6 93 17 137 24 86 14 249 57 330 87 28 10 88 30 135 45 47 14 104 35 127 45 24 11 47 19 53 19 6 0 18 4 28 9 9 6 58 29 107 51 130 60 279 133 285 139 6 7 26 19 110 67 64 37 230 144 240 154 3 3 21 17 40 30 19 13 37 27 40 30 3 3 39 31 80 63 110 84 491 473 548 559 9 14 37 54 62 89 78 111 180 281 224 374 99 207 151 326 161 376 4 19 15 61 26 94 11 33 24 74 29 91 6 17 10 40 10 52 0 11 4 23 9 26 4 3 11 25 14 48 4 24 11 68 17 98 26 129 32 198 37 430 5 235 0 311 -28 475 -18 105 -49 237 -79 335 -16 52 -37 122 -46 155 -9 33 -25 76 -35 95 -9 19 -25 53 -34 75 -32 74 -76 170 -87 190 -7 11 -28 49 -48 85 -20 36 -48 84 -63 107 -15 24 -27 45 -27 48 0 8 -61 98 -71 105 -4 3 -38 46 -76 97 -37 50 -95 122 -127 160 -84 97 -310 317 -381 371 -33 25 -62 49 -65 52 -3 3 -26 21 -53 40 -26 19 -77 58 -114 87 -36 28 -91 66 -122 82 -87 48 -116 65 -119 74 -2 4 -8 7 -14 7 -6 0 -29 12 -52 28 -22 15 -52 32 -66 39 -14 6 -86 40 -160 76 -185 88 -206 97 -224 97 -9 0 -24 4 -34 9 -73 37 -341 128 -407 137 -22 4 -65 13 -95 21 -30 7 -98 22 -150 33 -52 10 -102 22 -111 25 -12 4 -24 -4 -39 -25 -17 -24 -28 -30 -44 -26 -11 4 -61 11 -111 16 -49 6 -105 13 -122 16 -26 5 -34 2 -40 -12 -10 -27 -34 -43 -66 -44 -16 0 -36 -10 -49 -25 -16 -18 -32 -25 -58 -25 -27 0 -43 -7 -65 -30 -16 -16 -38 -30 -49 -30 -18 0 -18 1 4 25 13 14 21 28 17 31 -3 4 -18 -8 -32 -25 -16 -19 -36 -31 -50 -31 -14 0 -32 -8 -42 -19 -10 -10 -34 -26 -53 -36 -19 -10 -43 -24 -53 -33 -9 -8 -31 -17 -48 -19 -18 -2 -39 -11 -48 -22 -9 -10 -30 -25 -46 -33 -17 -9 -39 -25 -49 -37 -10 -11 -22 -18 -27 -16 -4 3 -16 -6 -27 -20 -11 -14 -24 -25 -29 -25 -4 0 -28 -20 -52 -45 -24 -25 -47 -45 -52 -45 -5 0 -9 -7 -9 -15 0 -8 -6 -15 -12 -15 -7 -1 -31 -24 -53 -52 -22 -28 -50 -62 -62 -77 -13 -14 -23 -32 -23 -38 0 -7 -6 -13 -13 -13 -12 0 -97 -155 -97 -178 0 -6 -6 -17 -12 -24 -40 -42 -97 -217 -122 -378 -23 -140 -20 -410 4 -483 5 -18 17 -69 25 -113 8 -45 23 -105 34 -134 11 -29 18 -57 15 -62 -3 -4 0 -8 5 -8 6 0 11 -6 11 -14 0 -12 92 -207 123 -261 54 -93 314 -385 343 -385 7 0 14 -7 17 -15 4 -8 45 -40 92 -71 47 -32 83 -59 81 -62 -13 -13 -204 110 -365 235 -73 56 -213 211 -285 313 -165 234 -265 479 -317 780 -20 114 -17 431 5 555 23 130 75 308 120 413 182 432 561 803 993 972 99 39 254 84 331 96 59 9 61 19 7 25 -57 6 -405 8 -450 3z m-1255 -2804 c0 -5 -2 -10 -4 -10 -3 0 -8 5 -11 10 -3 6 -1 10 4 10 6 0 11 -4 11 -10z m30 -20 c0 -5 -2 -10 -4 -10 -3 0 -8 5 -11 10 -3 6 -1 10 4 10 6 0 11 -4 11 -10z m27 -17 c-4 -3 -10 -3 -14 0 -3 4 0 7 7 7 7 0 10 -3 7 -7z m43 -23 c8 -5 11 -10 5 -10 -5 0 -17 5 -25 10 -8 5 -10 10 -5 10 6 0 17 -5 25 -10z m50 -30 c8 -5 11 -10 5 -10 -5 0 -17 5 -25 10 -8 5 -10 10 -5 10 6 0 17 -5 25 -10z m67 -47 c-4 -3 -7 0 -7 7 0 7 3 10 7 7 3 -4 3 -10 0 -14z m122 -49 c14 -12 -19 -1 -35 12 -18 14 -18 14 6 3 14 -6 27 -13 29 -15z m68 -31 c-4 -3 -10 -3 -14 0 -3 4 0 7 7 7 7 0 10 -3 7 -7z m50 -20 c-4 -3 -10 -3 -14 0 -3 4 0 7 7 7 7 0 10 -3 7 -7z m2585 -345 c95 -166 133 -277 162 -486 2 -15 -2 -26 -13 -29 -9 -3 -26 -15 -38 -26 -25 -22 -31 -74 -13 -107 8 -15 -2 -29 -63 -86 -218 -207 -477 -366 -788 -483 -246 -92 -470 -135 -761 -147 -179 -7 -188 -5 -149 38 22 22 121 218 121 237 0 6 4 11 10 11 5 0 6 7 3 17 -4 11 -3 14 5 9 7 -4 12 -2 12 3 0 6 3 10 8 9 35 -8 290 124 383 199 30 24 108 93 135 119 12 12 47 54 78 95 31 41 60 79 64 84 5 6 22 35 38 65 17 30 36 64 42 75 18 31 72 174 72 190 0 8 -6 15 -12 16 -7 0 34 11 92 25 180 41 391 124 525 207 22 14 42 26 45 26 3 1 22 -27 42 -61z m-775 -205 c-4 -3 -10 -3 -14 0 -3 4 0 7 7 7 7 0 10 -3 7 -7z"/>
<path d="M4214 7267 c-26 -30 -71 -97 -97 -144 -66 -116 -83 -143 -89 -143 -11 0 -10 66 2 115 5 22 7 41 6 43 -6 5 -64 -93 -125 -211 -61 -119 -178 -403 -201 -487 -7 -25 -16 -56 -21 -70 -4 -14 -11 -45 -14 -70 -3 -25 -10 -56 -15 -70 -4 -14 -11 -42 -14 -62 l-5 -38 45 25 44 25 -4 -23 c-23 -113 -27 -146 -24 -174 l3 -31 38 18 c36 18 37 18 37 -2 0 -20 0 -20 36 1 37 22 59 19 50 -6 -5 -11 -2 -13 11 -8 10 4 26 10 36 12 9 3 17 9 17 14 0 5 8 9 18 9 12 -1 8 -8 -18 -30 -19 -17 -39 -30 -46 -30 -6 0 -17 -7 -24 -15 -18 -22 -5 -18 40 10 47 29 50 30 50 9 0 -13 5 -12 34 5 25 16 35 18 38 9 3 -9 11 -8 31 5 26 17 27 17 27 -3 0 -21 15 -27 25 -10 4 6 14 9 23 6 10 -3 28 1 42 8 21 12 26 12 38 -3 7 -9 11 -11 8 -5 -6 12 17 27 44 28 8 0 27 13 43 29 15 16 27 24 27 17 0 -7 14 3 31 21 29 32 30 32 24 9 -3 -14 5 -6 19 20 13 25 28 44 32 42 12 -5 53 112 56 160 2 24 8 46 13 50 6 5 5 8 -3 8 -9 0 -11 7 -7 20 4 13 1 22 -9 26 -11 4 -16 19 -16 48 0 63 -22 208 -30 196 -8 -12 -20 60 -20 119 -1 34 -2 35 -15 17 -14 -18 -15 -16 -15 33 0 54 -12 61 -31 17 -7 -15 -8 -4 -6 42 3 54 2 60 -9 41 -10 -19 -11 -10 -6 52 4 65 3 73 -10 61 -14 -11 -15 -4 -12 60 2 52 1 64 -5 43 -5 -16 -9 -55 -10 -85 -2 -83 -20 -100 -22 -20 0 36 -3 59 -6 53 -2 -7 -9 -13 -15 -13 -7 0 -9 24 -6 69 5 69 5 70 -13 48 -19 -22 -19 -22 -13 33 3 30 7 65 10 78 6 28 2 28 -22 -1z"/>
</g>
<g id="layer108" fill="#961860" stroke="none">
<path d="M6985 9163 c-344 -41 -576 -105 -840 -234 -562 -274 -998 -767 -1206 -1362 l-34 -96 25 -73 c37 -110 151 -335 226 -449 117 -178 299 -376 461 -503 35 -27 60 -52 58 -57 -3 -4 0 -11 6 -15 8 -4 9 -3 5 4 -12 20 0 14 86 -42 46 -29 111 -68 146 -85 58 -29 83 -48 45 -34 -24 9 -200 110 -236 135 -43 30 -47 24 -87 -132 -5 -19 -12 -65 -15 -102 l-7 -68 29 -1 c15 0 -3 -7 -42 -15 -312 -67 -818 -259 -1415 -539 -102 -48 -211 -99 -242 -113 -32 -14 -58 -29 -58 -34 0 -4 52 -8 115 -8 l115 0 0 -30 0 -30 -192 0 -193 0 -393 -197 c-215 -109 -392 -201 -392 -205 0 -5 97 -8 215 -8 l215 0 0 -30 0 -30 -285 0 -285 0 -263 -139 c-433 -229 -477 -254 -477 -264 0 -6 118 -8 332 -6 l333 4 0 -33 0 -33 -403 1 -403 0 -242 -133 c-397 -220 -487 -271 -487 -276 0 -3 237 -4 527 -1 l528 5 205 139 c407 274 980 646 1295 839 99 60 218 133 265 162 124 76 301 180 330 194 23 11 24 11 6 -3 -22 -18 -21 -22 33 -176 22 -63 40 -123 41 -133 0 -9 4 -25 9 -35 9 -17 57 -159 113 -332 17 -52 50 -153 75 -225 53 -157 86 -258 111 -345 l19 -65 44 -5 c24 -3 -57 -7 -181 -10 -124 -4 187 -6 690 -5 896 1 917 1 1008 22 208 48 393 131 536 240 48 37 94 72 101 77 8 6 40 -9 100 -49 395 -260 893 -322 1355 -169 472 156 826 526 945 984 48 188 46 424 -6 620 l-20 75 41 87 c130 278 201 626 199 977 -1 91 -2 180 -4 196 -1 17 -3 40 -4 53 -2 34 -19 26 -27 -13 -6 -36 -17 -44 -30 -23 -5 7 -3 8 6 3 10 -6 12 -1 8 19 -3 14 -1 26 4 26 5 0 -12 21 -37 48 -41 42 -43 47 -25 50 20 3 20 5 -7 28 -22 19 -24 24 -10 24 23 0 22 9 -5 32 -17 14 -19 21 -10 27 17 10 -52 73 -72 65 -8 -3 -24 0 -36 6 -17 9 -19 14 -10 25 9 11 2 21 -35 47 -84 58 -83 57 -62 58 31 0 18 14 -56 61 -156 98 -306 181 -402 221 -22 9 -80 34 -130 56 -49 21 -117 46 -150 56 -33 9 -82 24 -110 32 -121 38 -205 58 -365 87 -218 41 -235 42 -570 42 l-336 0 -32 -31 c-23 -21 -52 -34 -95 -44 -47 -10 -68 -20 -88 -43 -16 -19 -30 -27 -38 -23 -9 6 -9 11 0 22 6 8 10 17 7 20 -9 8 -58 -15 -64 -31 -4 -8 -21 -22 -40 -31 -19 -9 -34 -20 -34 -25 0 -5 -8 -17 -18 -27 -9 -9 -28 -32 -40 -50 -13 -17 -30 -32 -38 -32 -8 0 -17 -7 -20 -15 -4 -8 -10 -12 -15 -9 -5 3 -14 -6 -21 -20 -6 -14 -15 -26 -20 -26 -4 0 -8 -11 -8 -25 0 -14 -7 -28 -15 -31 -8 -4 -15 -17 -15 -30 0 -15 -6 -24 -15 -24 -9 0 -15 -9 -15 -22 0 -19 -2 -20 -10 -8 -8 12 -10 11 -10 -5 0 -11 -6 -29 -14 -40 -7 -11 -16 -42 -20 -70 -4 -27 -14 -60 -21 -71 -24 -38 -34 -275 -20 -454 4 -52 8 -105 9 -117 1 -13 3 -23 6 -23 3 0 6 -8 7 -17 3 -36 37 -148 47 -155 6 -4 7 -8 3 -8 -5 0 1 -17 11 -37 11 -21 36 -69 55 -108 19 -38 54 -99 78 -134 24 -35 51 -74 60 -87 8 -13 49 -58 90 -100 185 -189 396 -318 670 -408 169 -56 296 -77 469 -78 219 -1 421 47 603 145 89 48 201 126 223 155 8 9 14 13 14 9 0 -4 12 4 28 18 15 14 45 38 66 53 22 15 51 38 66 52 44 43 80 70 90 70 6 0 16 11 22 25 6 13 19 27 28 30 9 3 29 19 44 35 14 17 31 30 37 30 5 0 8 4 4 9 -3 5 3 12 14 16 11 3 22 12 25 20 3 8 12 15 19 15 8 0 20 14 27 30 7 18 22 33 37 36 15 4 22 12 19 20 -3 7 8 24 24 38 17 14 30 28 30 33 0 4 9 19 20 33 16 20 20 22 20 8 0 -10 -4 -18 -9 -18 -5 0 -13 -12 -19 -28 -15 -45 -159 -229 -262 -336 -52 -54 -140 -132 -195 -173 -55 -41 -104 -79 -109 -83 -5 -5 1 -22 13 -39 73 -102 160 -341 176 -483 6 -55 5 -58 -18 -67 -48 -19 -72 -84 -47 -130 8 -15 -2 -30 -58 -83 -231 -222 -536 -405 -857 -515 -236 -81 -413 -112 -684 -120 -212 -6 -201 -10 -155 52 30 41 99 181 115 233 8 29 15 38 21 30 6 -10 8 -10 8 -1 0 7 3 12 8 11 35 -8 290 124 383 199 30 24 108 93 135 119 12 12 47 54 78 95 31 41 60 79 64 84 5 6 22 35 38 65 17 30 36 64 42 75 19 32 72 174 72 192 0 13 -9 15 -57 10 -402 -42 -730 13 -1058 176 -481 239 -821 660 -949 1176 -43 170 -50 238 -50 436 0 213 14 312 69 505 85 296 240 554 463 774 243 239 513 392 832 469 165 40 165 40 90 48 -67 7 -382 9 -435 2z m2532 -2205 c-3 -7 -5 -2 -5 12 0 14 2 19 5 13 2 -7 2 -19 0 -25z m-70 -225 c-4 -3 -7 0 -7 7 0 7 3 10 7 7 3 -4 3 -10 0 -14z m-29 -85 c-5 -13 -38 -20 -38 -8 0 8 17 18 33 19 5 1 7 -4 5 -11z m-27 -51 c-10 -9 -11 -8 -5 6 3 10 9 15 12 12 3 -3 0 -11 -7 -18z m-7 -32 c-6 -16 -24 -21 -24 -7 0 11 11 22 21 22 5 0 6 -7 3 -15z m-3344 -375 c19 -11 31 -19 25 -19 -5 0 -26 8 -45 19 -19 11 -30 19 -25 19 6 0 26 -8 45 -19z m97 -47 c-4 -3 -10 -3 -14 0 -3 4 0 7 7 7 7 0 10 -3 7 -7z m50 -20 c-4 -3 -10 -3 -14 0 -3 4 0 7 7 7 7 0 10 -3 7 -7z m30 -10 c-4 -3 -10 -3 -14 0 -3 4 0 7 7 7 7 0 10 -3 7 -7z m30 -10 c-4 -3 -10 -3 -14 0 -3 4 0 7 7 7 7 0 10 -3 7 -7z m30 -10 c-4 -3 -10 -3 -14 0 -3 4 0 7 7 7 7 0 10 -3 7 -7z m30 -10 c-4 -3 -10 -3 -14 0 -3 4 0 7 7 7 7 0 10 -3 7 -7z m40 -9 c-3 -3 -12 -4 -19 -1 -8 3 -5 6 6 6 11 1 17 -2 13 -5z m30 -11 c-4 -3 -10 -3 -14 0 -3 4 0 7 7 7 7 0 10 -3 7 -7z m40 -10 c-4 -3 -10 -3 -14 0 -3 4 0 7 7 7 7 0 10 -3 7 -7z m50 -9 c-3 -3 -12 -4 -19 -1 -8 3 -5 6 6 6 11 1 17 -2 13 -5z m40 -11 c-4 -3 -10 -3 -14 0 -3 4 0 7 7 7 7 0 10 -3 7 -7z m760 -1230 c-4 -3 -7 0 -7 7 0 7 3 10 7 7 3 -4 3 -10 0 -14z m-10 -45 c-3 -8 -6 -5 -6 6 -1 11 2 17 5 13 3 -3 4 -12 1 -19z"/>
</g>
<g id="layer109" fill="#326993" stroke="none">
<path d="M7151 8023 c-52 -3 -68 -9 -93 -32 -19 -18 -50 -32 -91 -41 -47 -10 -68 -20 -88 -43 -16 -19 -30 -27 -38 -23 -9 6 -9 11 0 22 6 8 10 17 7 20 -9 8 -58 -15 -64 -31 -4 -8 -21 -22 -40 -31 -19 -9 -34 -20 -34 -25 0 -5 -8 -17 -18 -27 -9 -9 -28 -32 -40 -50 -13 -17 -30 -32 -38 -32 -8 0 -17 -7 -20 -15 -4 -8 -10 -12 -15 -9 -5 3 -14 -6 -21 -20 -6 -14 -15 -26 -20 -26 -4 0 -8 -11 -8 -25 0 -14 -7 -28 -15 -31 -8 -4 -15 -17 -15 -30 0 -15 -6 -24 -15 -24 -9 0 -15 -9 -15 -22 0 -19 -2 -20 -10 -8 -8 12 -10 11 -10 -5 0 -11 -6 -29 -14 -40 -7 -11 -16 -42 -20 -70 -4 -27 -14 -60 -21 -71 -24 -38 -34 -275 -20 -454 4 -52 8 -105 9 -117 1 -13 3 -23 6 -23 3 0 6 -8 7 -17 3 -36 37 -148 47 -155 6 -4 7 -8 3 -8 -5 0 1 -17 11 -37 11 -21 36 -69 55 -108 19 -38 54 -99 78 -134 24 -35 51 -74 60 -87 8 -13 49 -58 90 -100 185 -189 396 -318 670 -408 169 -56 296 -77 469 -78 219 -1 421 47 603 145 89 48 201 126 223 155 8 9 14 13 14 9 0 -4 12 4 28 18 15 14 45 38 66 53 22 15 51 38 66 52 44 43 80 70 90 70 6 0 16 11 22 25 6 13 19 27 28 30 9 3 29 19 44 35 14 17 31 30 37 30 5 0 8 4 4 9 -3 5 3 12 14 16 11 3 22 12 25 20 3 8 12 15 19 15 8 0 20 14 27 30 7 18 22 33 37 36 15 4 22 12 19 20 -3 7 8 24 24 38 17 14 30 28 30 33 0 4 9 19 20 33 16 20 20 22 20 8 0 -10 -5 -18 -11 -18 -5 0 -8 -4 -5 -9 4 -5 3 -11 -1 -13 -5 -1 -16 -20 -27 -40 -10 -20 -26 -45 -35 -55 -9 -10 -51 -61 -92 -113 -94 -118 -227 -246 -341 -329 -49 -35 -88 -65 -88 -68 0 -3 9 -18 20 -34 72 -100 159 -340 175 -481 6 -55 5 -58 -18 -67 -50 -19 -72 -84 -46 -134 11 -19 6 -26 -42 -70 -382 -344 -795 -547 -1268 -623 -93 -15 -481 -32 -481 -21 0 3 16 29 36 58 42 63 86 149 103 202 7 20 16 35 21 32 4 -3 6 3 4 12 -2 10 0 32 6 48 9 28 9 27 5 -10 -4 -25 -2 -35 3 -27 5 8 12 13 16 13 38 -6 286 123 377 196 30 24 108 93 135 119 12 12 47 54 78 95 31 41 60 79 64 84 5 6 22 35 38 65 17 30 36 64 42 75 19 32 72 174 72 192 0 13 -9 15 -57 10 -533 -56 -979 67 -1381 380 -79 62 -88 66 -179 84 -241 50 -540 177 -753 322 -25 17 -39 24 -33 16 7 -9 9 -20 5 -25 -8 -8 -23 -55 -42 -134 -5 -19 -12 -65 -15 -102 l-7 -68 29 -1 c15 0 -3 -7 -42 -15 -312 -67 -818 -259 -1415 -539 -102 -48 -211 -99 -242 -113 -32 -14 -58 -29 -58 -34 0 -4 52 -8 115 -8 l115 0 0 -30 0 -30 -192 0 -193 0 -392 -197 c-216 -109 -393 -201 -393 -205 0 -5 97 -8 215 -8 l215 0 0 -30 0 -30 -285 0 -285 0 -263 -139 c-433 -229 -477 -254 -477 -264 0 -6 118 -8 333 -6 l332 4 0 -33 0 -33 -403 1 -403 0 -242 -133 c-397 -220 -487 -271 -487 -276 0 -3 237 -4 527 -1 l528 5 205 139 c347 234 917 606 1205 784 708 440 1082 657 1475 854 129 65 239 118 244 118 7 0 -19 -23 -52 -46 -4 -3 32 -112 48 -149 5 -11 19 -51 31 -90 12 -38 30 -92 40 -120 10 -27 21 -63 25 -80 7 -36 17 -64 84 -255 29 -80 58 -167 65 -195 7 -27 22 -77 35 -110 12 -33 25 -73 30 -90 10 -41 39 -125 50 -150 5 -11 16 -45 25 -75 22 -76 98 -307 134 -410 46 -130 60 -119 -151 -123 -101 -2 -46 -3 122 -1 327 2 397 9 575 60 155 44 319 130 447 233 l72 58 88 -59 c390 -262 895 -325 1358 -172 472 156 826 526 945 984 48 188 46 424 -6 620 l-20 75 41 87 c46 99 129 339 135 395 3 21 12 72 19 113 41 217 54 409 42 643 -4 72 -19 105 -31 68 -3 -11 -3 -25 0 -31 3 -5 -1 -10 -9 -10 -8 0 -18 5 -22 12 -5 7 -3 8 6 3 10 -6 12 -1 8 19 -3 14 -1 26 4 26 5 0 -12 21 -37 48 -41 42 -43 47 -25 50 20 3 20 5 -7 28 -22 19 -24 24 -10 24 23 0 22 9 -5 32 -17 14 -19 21 -10 27 17 10 -52 73 -72 65 -8 -3 -24 0 -36 6 -17 9 -19 14 -10 25 9 11 2 21 -35 47 -84 58 -83 57 -62 58 31 0 18 14 -56 61 -156 98 -306 181 -402 221 -22 9 -80 34 -130 56 -49 21 -117 46 -150 56 -33 9 -82 24 -110 32 -123 39 -206 58 -370 88 -49 9 -115 21 -145 27 -56 11 -584 20 -699 12z m2379 -1065 c0 -5 -4 -8 -10 -8 -5 0 -10 10 -10 23 0 18 2 19 10 7 5 -8 10 -18 10 -22z m-23 -85 c-4 -3 -10 -3 -14 0 -3 4 0 7 7 7 7 0 10 -3 7 -7z m-53 -139 c3 -8 2 -12 -4 -9 -6 3 -10 10 -10 16 0 14 7 11 14 -7z m-7 -31 c-4 -3 -10 -3 -14 0 -3 4 0 7 7 7 7 0 10 -3 7 -7z m-23 -57 c-3 -8 -14 -14 -25 -13 -22 1 -25 13 -6 20 23 10 36 7 31 -7z m-33 -49 c-10 -9 -11 -8 -5 6 3 10 9 15 12 12 3 -3 0 -11 -7 -18z m-1 -24 c-1 -18 -18 -35 -24 -24 -4 6 -4 16 -1 21 7 12 25 13 25 3z m-3433 -540 c-4 -3 -10 -3 -14 0 -3 4 0 7 7 7 7 0 10 -3 7 -7z m190 1 c-3 -3 -12 -4 -19 -1 -8 3 -5 6 6 6 11 1 17 -2 13 -5z m80 -11 c-4 -3 -10 -3 -14 0 -3 4 0 7 7 7 7 0 10 -3 7 -7z m1050 -985 c-3 -8 -6 -5 -6 6 -1 11 2 17 5 13 3 -3 4 -12 1 -19z m0 -125 c-4 -3 -7 0 -7 7 0 7 3 10 7 7 3 -4 3 -10 0 -14z m-10 -110 c-4 -3 -7 0 -7 7 0 7 3 10 7 7 3 -4 3 -10 0 -14z"/>
</g>
<g id="layer110" fill="#b01768" stroke="none">
<path d="M6965 9159 c-127 -12 -289 -44 -435 -85 -563 -160 -1049 -530 -1366 -1039 -77 -125 -183 -348 -225 -477 l-28 -87 23 -68 c28 -81 77 -195 82 -190 2 2 -12 41 -31 86 -38 89 -42 103 -22 79 6 -8 23 -18 37 -22 204 -55 265 -70 320 -81 36 -7 119 -27 185 -44 66 -18 163 -43 215 -57 52 -13 109 -28 125 -33 17 -5 47 -12 68 -14 30 -5 37 -3 38 11 1 9 5 -3 11 -28 30 -148 41 -191 44 -187 2 2 -5 46 -17 98 -27 122 -37 415 -19 555 14 114 58 298 95 404 73 203 235 464 391 629 179 190 449 367 692 455 83 30 260 76 291 76 12 0 21 4 21 8 0 20 -323 27 -495 11z"/>
<path d="M7151 8023 c-52 -3 -68 -9 -93 -32 -19 -18 -50 -32 -91 -41 -47 -10 -68 -20 -88 -43 -16 -19 -30 -27 -38 -23 -9 6 -9 11 0 22 6 8 10 17 7 20 -9 8 -58 -15 -64 -31 -4 -8 -21 -22 -40 -31 -19 -9 -34 -20 -34 -25 0 -5 -8 -17 -18 -27 -9 -9 -28 -32 -40 -50 -13 -17 -30 -32 -38 -32 -8 0 -17 -7 -20 -15 -4 -8 -10 -12 -15 -9 -5 3 -14 -6 -21 -20 -6 -14 -15 -26 -20 -26 -4 0 -8 -11 -8 -25 0 -14 -7 -28 -15 -31 -8 -4 -15 -17 -15 -30 0 -15 -6 -24 -15 -24 -9 0 -15 -9 -15 -22 0 -19 -2 -20 -10 -8 -8 12 -10 11 -10 -5 0 -11 -6 -29 -14 -40 -7 -11 -16 -42 -20 -70 -4 -27 -14 -60 -21 -71 -24 -38 -34 -275 -20 -454 4 -52 8 -105 9 -117 1 -13 3 -23 6 -23 3 0 6 -8 7 -17 3 -36 37 -148 47 -155 6 -4 7 -8 3 -8 -5 0 1 -17 11 -37 11 -21 36 -69 55 -108 19 -38 54 -99 78 -134 24 -35 51 -74 60 -87 8 -13 49 -58 90 -100 185 -189 396 -318 670 -408 169 -56 296 -77 469 -78 219 -1 421 47 603 145 89 48 201 126 223 155 8 9 14 13 14 9 0 -4 12 4 28 18 15 14 45 38 66 53 22 15 51 38 66 52 44 43 80 70 90 70 6 0 16 11 22 25 6 13 19 27 28 30 9 3 29 19 44 35 14 17 31 30 37 30 5 0 8 4 4 9 -3 5 3 12 14 16 11 3 22 12 25 20 3 8 12 15 19 15 8 0 20 14 27 30 7 18 22 33 37 36 15 4 22 12 19 20 -3 7 8 24 24 38 17 14 30 28 30 33 0 4 9 19 20 33 16 20 20 22 20 8 0 -10 -5 -18 -11 -18 -5 0 -8 -4 -5 -9 4 -5 3 -11 -1 -13 -5 -1 -16 -20 -27 -40 -10 -20 -26 -45 -35 -55 -9 -10 -51 -61 -92 -113 -94 -118 -227 -246 -341 -329 -49 -35 -88 -65 -88 -68 0 -3 9 -18 20 -34 72 -100 159 -340 175 -481 6 -55 5 -58 -18 -67 -50 -19 -72 -84 -46 -134 11 -19 6 -26 -42 -70 -382 -344 -795 -547 -1268 -623 -93 -15 -481 -32 -481 -21 0 3 16 29 36 58 62 92 106 191 134 299 7 25 14 54 17 65 3 11 7 72 8 135 3 105 -1 147 -20 220 -3 14 -8 32 -10 40 -2 8 -4 16 -5 18 -2 1 -3 5 -4 10 -1 4 -5 13 -9 20 -5 6 -5 12 -2 12 3 0 0 12 -8 28 -8 15 -23 46 -32 70 -10 23 -21 42 -25 42 -5 0 -11 11 -14 25 -4 14 -11 25 -16 25 -6 0 -10 7 -10 15 0 8 -4 15 -10 15 -5 0 -10 7 -10 15 0 8 -46 60 -103 117 -113 114 -165 158 -184 158 -7 0 -13 5 -13 10 0 6 -7 10 -15 10 -8 0 -15 4 -15 9 0 11 -215 119 -245 124 -11 1 -26 6 -32 10 -7 5 -13 5 -13 1 0 -3 -7 -1 -15 6 -8 7 -15 9 -15 6 0 -4 -8 -2 -18 3 -11 6 -30 12 -43 15 -13 3 -35 8 -49 11 -104 23 -128 26 -280 30 -395 13 -429 10 -665 -56 -263 -74 -730 -262 -1205 -484 -102 -48 -211 -99 -242 -113 -32 -14 -58 -29 -58 -34 0 -4 52 -8 115 -8 l115 0 0 -30 0 -30 -192 0 -193 0 -392 -197 c-216 -109 -393 -201 -393 -205 0 -5 97 -8 215 -8 l215 0 0 -30 0 -30 -285 0 -285 0 -263 -139 c-433 -229 -477 -254 -477 -264 0 -6 118 -8 333 -6 l332 4 0 -33 0 -33 -403 1 -403 0 -242 -133 c-397 -220 -487 -271 -487 -276 0 -3 237 -4 527 -1 l528 5 205 139 c347 234 917 606 1205 784 708 440 1082 657 1475 854 129 65 239 118 244 118 7 0 -19 -23 -52 -46 -4 -3 32 -112 48 -149 5 -11 19 -51 31 -90 12 -38 30 -92 40 -120 10 -27 21 -63 25 -80 7 -36 17 -64 84 -255 29 -80 58 -167 65 -195 7 -27 22 -77 35 -110 12 -33 25 -73 30 -90 10 -41 39 -125 50 -150 5 -11 16 -45 25 -75 22 -76 98 -307 134 -410 46 -130 60 -119 -151 -123 -101 -2 -46 -3 122 -1 327 2 397 9 575 60 155 44 319 130 447 233 l72 58 88 -59 c390 -262 895 -325 1358 -172 472 156 826 526 945 984 48 188 46 424 -6 620 l-20 75 41 87 c46 99 129 339 135 395 3 21 12 72 19 113 41 217 54 409 42 643 -4 72 -19 105 -31 68 -3 -11 -3 -25 0 -31 3 -5 -1 -10 -9 -10 -8 0 -18 5 -22 12 -5 7 -3 8 6 3 10 -6 12 -1 8 19 -3 14 -1 26 4 26 5 0 -12 21 -37 48 -41 42 -43 47 -25 50 20 3 20 5 -7 28 -22 19 -24 24 -10 24 23 0 22 9 -5 32 -17 14 -19 21 -10 27 17 10 -52 73 -72 65 -8 -3 -24 0 -36 6 -17 9 -19 14 -10 25 9 11 2 21 -35 47 -84 58 -83 57 -62 58 31 0 18 14 -56 61 -156 98 -306 181 -402 221 -22 9 -80 34 -130 56 -49 21 -117 46 -150 56 -33 9 -82 24 -110 32 -123 39 -206 58 -370 88 -49 9 -115 21 -145 27 -56 11 -584 20 -699 12z m2379 -1065 c0 -5 -4 -8 -10 -8 -5 0 -10 10 -10 23 0 18 2 19 10 7 5 -8 10 -18 10 -22z m-23 -85 c-4 -3 -10 -3 -14 0 -3 4 0 7 7 7 7 0 10 -3 7 -7z m-53 -139 c3 -8 2 -12 -4 -9 -6 3 -10 10 -10 16 0 14 7 11 14 -7z m-7 -31 c-4 -3 -10 -3 -14 0 -3 4 0 7 7 7 7 0 10 -3 7 -7z m-23 -57 c-3 -8 -14 -14 -25 -13 -22 1 -25 13 -6 20 23 10 36 7 31 -7z m-33 -49 c-10 -9 -11 -8 -5 6 3 10 9 15 12 12 3 -3 0 -11 -7 -18z m-1 -24 c-1 -18 -18 -35 -24 -24 -4 6 -4 16 -1 21 7 12 25 13 25 3z"/>
<path d="M5095 7050 c3 -5 8 -10 11 -10 3 0 2 5 -1 10 -3 6 -8 10 -11 10 -3 0 -2 -4 1 -10z"/>
</g>
<g id="layer111" fill="#e53023" stroke="none">
<path d="M7151 8023 c-52 -3 -68 -9 -93 -32 -19 -18 -50 -32 -91 -41 -47 -10 -68 -20 -88 -43 -16 -19 -30 -27 -38 -23 -9 6 -9 11 0 22 6 8 10 17 7 20 -9 8 -58 -15 -64 -31 -4 -8 -21 -22 -40 -31 -19 -9 -34 -20 -34 -25 0 -5 -8 -17 -18 -27 -9 -9 -28 -32 -40 -50 -13 -17 -30 -32 -38 -32 -8 0 -17 -7 -20 -15 -4 -8 -10 -12 -15 -9 -5 3 -14 -6 -21 -20 -6 -14 -15 -26 -20 -26 -4 0 -8 -11 -8 -25 0 -14 -7 -28 -15 -31 -8 -4 -15 -17 -15 -30 0 -15 -6 -24 -15 -24 -9 0 -15 -9 -15 -22 0 -19 -2 -20 -10 -8 -8 12 -10 11 -10 -5 0 -11 -6 -29 -14 -40 -7 -11 -16 -42 -20 -70 -4 -27 -14 -60 -21 -71 -24 -38 -34 -275 -20 -454 4 -52 8 -105 9 -117 1 -13 3 -23 6 -23 3 0 6 -8 7 -17 3 -36 37 -148 47 -155 6 -4 7 -8 3 -8 -5 0 1 -17 11 -37 11 -21 36 -69 55 -108 19 -38 54 -99 78 -134 24 -35 51 -74 60 -87 8 -13 49 -58 90 -100 185 -189 396 -318 670 -408 169 -56 296 -77 469 -78 219 -1 421 47 603 145 89 48 201 126 223 155 8 9 14 13 14 9 0 -4 12 4 28 18 15 14 45 38 66 53 22 15 51 38 66 52 44 43 80 70 90 70 6 0 16 11 22 25 6 13 19 27 28 30 9 3 29 19 44 35 14 17 31 30 37 30 5 0 8 4 4 9 -3 5 3 12 14 16 11 3 22 12 25 20 3 8 12 15 19 15 8 0 20 14 27 30 7 18 22 33 37 36 15 4 22 12 19 20 -3 7 8 24 24 38 17 14 30 28 30 33 0 4 9 19 20 33 16 20 20 22 20 8 0 -10 -5 -18 -11 -18 -5 0 -8 -4 -5 -9 4 -5 3 -11 -1 -13 -5 -1 -16 -20 -27 -40 -10 -20 -26 -45 -35 -55 -9 -10 -51 -61 -92 -113 -94 -118 -227 -246 -341 -329 -49 -35 -88 -65 -88 -68 0 -3 9 -18 20 -34 72 -100 159 -340 175 -481 6 -55 5 -58 -18 -67 -50 -19 -72 -84 -46 -134 11 -19 6 -26 -42 -70 -301 -271 -604 -445 -964 -553 -203 -62 -349 -84 -598 -91 l-199 -6 35 49 c78 109 161 313 158 387 -1 15 2 27 6 27 5 0 8 52 8 115 0 63 -4 115 -8 115 -5 0 -6 14 -2 30 4 20 3 30 -5 30 -7 0 -10 8 -7 20 3 11 1 23 -5 26 -5 3 -7 12 -4 20 3 8 1 14 -5 14 -6 0 -9 6 -6 14 3 7 0 19 -6 25 -6 6 -7 11 -3 11 4 0 -2 15 -13 33 -11 19 -18 37 -14 40 3 4 1 7 -6 7 -7 0 -9 5 -6 10 3 6 1 10 -5 10 -6 0 -8 5 -5 10 3 6 1 10 -5 10 -6 0 -8 5 -5 10 3 6 1 10 -4 10 -6 0 -11 7 -11 15 0 8 -5 15 -11 15 -5 0 -8 4 -5 9 3 5 -1 12 -10 15 -8 3 -13 10 -10 15 3 5 -1 12 -9 15 -8 3 -14 9 -13 13 4 11 -10 26 -111 128 -46 47 -87 85 -92 85 -5 0 -13 9 -19 20 -6 11 -15 18 -19 15 -5 -3 -12 2 -15 11 -3 8 -10 12 -16 9 -6 -3 -13 1 -16 9 -3 9 -12 16 -20 16 -8 0 -14 4 -14 10 0 5 -11 12 -25 16 -14 3 -25 10 -25 16 0 5 -4 6 -10 3 -5 -3 -10 -1 -10 5 0 6 -4 8 -10 5 -5 -3 -10 -1 -10 5 0 6 -4 8 -10 5 -5 -3 -10 -1 -10 5 0 6 -4 8 -10 5 -5 -3 -10 -1 -10 5 0 6 -4 8 -10 5 -5 -3 -10 -1 -10 5 0 6 -4 8 -10 5 -5 -3 -10 -1 -10 5 0 7 -7 10 -15 6 -8 -3 -15 -1 -15 5 0 6 -4 7 -10 4 -5 -3 -10 -1 -10 5 0 7 -7 10 -15 6 -8 -3 -15 -1 -15 4 0 6 -3 9 -7 9 -5 -1 -11 0 -15 1 -5 1 -12 4 -18 5 -5 1 -11 3 -12 5 -2 1 -12 4 -23 6 -34 8 -50 12 -50 14 0 2 -26 8 -63 15 -12 3 -34 7 -50 10 -15 4 -38 6 -52 6 -14 0 -31 2 -39 5 -8 2 -103 6 -213 9 -110 2 -203 7 -207 9 -16 10 -183 -15 -298 -44 -293 -76 -756 -258 -1283 -505 -102 -48 -211 -99 -242 -113 -32 -14 -58 -29 -58 -34 0 -4 52 -8 115 -8 l115 0 0 -30 0 -30 -192 0 -193 0 -392 -197 c-216 -109 -393 -201 -393 -205 0 -5 97 -8 215 -8 l215 0 0 -30 0 -30 -285 0 -285 0 -263 -139 c-433 -229 -477 -254 -477 -264 0 -6 118 -8 333 -6 l332 4 0 -33 0 -33 -403 1 -403 0 -242 -133 c-397 -220 -487 -271 -487 -276 0 -3 237 -4 527 -1 l528 5 205 139 c347 234 917 606 1205 784 295 184 519 320 702 428 776 458 1361 734 1557 734 62 0 64 -1 69 -27 3 -16 21 -73 40 -128 20 -55 40 -118 46 -140 5 -22 28 -92 51 -155 23 -63 55 -158 71 -210 33 -104 77 -239 138 -425 22 -66 55 -169 75 -230 19 -60 50 -155 69 -210 19 -55 56 -165 82 -245 26 -80 51 -150 57 -157 7 -8 -1 -18 -29 -32 -71 -38 -23 -21 60 20 105 53 205 118 261 169 l44 41 91 -61 c394 -264 896 -328 1361 -174 472 156 826 526 945 984 48 188 46 424 -6 620 l-20 75 41 87 c46 99 129 339 135 395 3 21 12 72 19 113 41 217 54 409 42 643 -4 72 -19 105 -31 68 -3 -11 -3 -25 0 -31 3 -5 -1 -10 -9 -10 -8 0 -18 5 -22 12 -5 7 -3 8 6 3 10 -6 12 -1 8 19 -3 14 -1 26 4 26 5 0 -12 21 -37 48 -41 42 -43 47 -25 50 20 3 20 5 -7 28 -22 19 -24 24 -10 24 23 0 22 9 -5 32 -17 14 -19 21 -10 27 17 10 -52 73 -72 65 -8 -3 -24 0 -36 6 -17 9 -19 14 -10 25 9 11 2 21 -35 47 -84 58 -83 57 -62 58 31 0 18 14 -56 61 -156 98 -306 181 -402 221 -22 9 -80 34 -130 56 -49 21 -117 46 -150 56 -33 9 -82 24 -110 32 -123 39 -206 58 -370 88 -49 9 -115 21 -145 27 -56 11 -584 20 -699 12z m2379 -1065 c0 -5 -4 -8 -10 -8 -5 0 -10 10 -10 23 0 18 2 19 10 7 5 -8 10 -18 10 -22z m-23 -85 c-4 -3 -10 -3 -14 0 -3 4 0 7 7 7 7 0 10 -3 7 -7z m-53 -139 c3 -8 2 -12 -4 -9 -6 3 -10 10 -10 16 0 14 7 11 14 -7z m-7 -31 c-4 -3 -10 -3 -14 0 -3 4 0 7 7 7 7 0 10 -3 7 -7z m-23 -57 c-3 -8 -14 -14 -25 -13 -22 1 -25 13 -6 20 23 10 36 7 31 -7z m-33 -49 c-10 -9 -11 -8 -5 6 3 10 9 15 12 12 3 -3 0 -11 -7 -18z m-1 -24 c-1 -18 -18 -35 -24 -24 -4 6 -4 16 -1 21 7 12 25 13 25 3z"/>
</g>
<g id="layer112" fill="#6d6b6c" stroke="none">
<path d="M7151 8023 c-52 -3 -68 -9 -93 -32 -19 -18 -50 -32 -91 -41 -47 -10 -68 -20 -88 -43 -16 -19 -30 -27 -38 -23 -9 6 -9 11 0 22 6 8 10 17 7 20 -9 8 -58 -15 -64 -31 -4 -8 -21 -22 -40 -31 -19 -9 -34 -20 -34 -25 0 -5 -8 -17 -18 -27 -9 -9 -28 -32 -40 -50 -13 -17 -30 -32 -38 -32 -8 0 -17 -7 -20 -15 -4 -8 -10 -12 -15 -9 -5 3 -14 -6 -21 -20 -6 -14 -15 -26 -20 -26 -4 0 -8 -11 -8 -25 0 -14 -7 -28 -15 -31 -8 -4 -15 -17 -15 -30 0 -15 -6 -24 -15 -24 -9 0 -15 -9 -15 -22 0 -19 -2 -20 -10 -8 -8 12 -10 11 -10 -5 0 -11 -6 -29 -14 -40 -7 -11 -16 -42 -20 -70 -4 -27 -14 -60 -21 -71 -24 -38 -34 -275 -20 -454 4 -52 8 -105 9 -117 1 -13 3 -23 6 -23 3 0 6 -8 7 -17 3 -36 37 -148 47 -155 6 -4 7 -8 3 -8 -5 0 1 -17 11 -37 11 -21 36 -69 55 -108 19 -38 54 -99 78 -134 24 -35 51 -74 60 -87 8 -13 49 -58 90 -100 185 -189 396 -318 670 -408 169 -56 296 -77 469 -78 219 -1 421 47 603 145 89 48 201 126 223 155 8 9 14 13 14 9 0 -4 12 4 28 18 15 14 45 38 66 53 22 15 51 38 66 52 44 43 80 70 90 70 6 0 16 11 22 25 6 13 19 27 28 30 9 3 29 19 44 35 14 17 31 30 37 30 5 0 8 4 4 9 -3 5 3 12 14 16 11 3 22 12 25 20 3 8 12 15 19 15 8 0 20 14 27 30 7 18 22 33 37 36 15 4 22 12 19 20 -3 7 7 23 23 36 15 13 30 31 34 41 4 10 11 16 16 13 5 -3 8 0 7 7 0 6 4 13 9 15 16 5 37 51 29 64 -4 6 4 20 17 30 13 11 18 17 12 13 -9 -4 -11 -1 -7 9 3 9 11 13 16 10 6 -4 8 -1 6 7 -3 8 -11 13 -17 11 -23 -5 -10 18 14 24 14 3 22 10 19 15 -3 5 0 9 6 9 7 0 10 7 6 15 -3 8 -1 15 3 15 11 0 63 149 56 160 -3 5 0 10 7 12 7 3 12 24 11 57 0 34 2 48 8 40 7 -12 9 -12 9 0 0 8 -8 20 -17 28 -10 8 -12 11 -4 7 11 -5 13 -1 9 20 -3 14 -1 26 4 26 5 0 -12 21 -37 48 -41 42 -43 47 -25 50 20 3 20 5 -7 28 -22 19 -24 24 -10 24 23 0 22 9 -5 32 -17 14 -19 21 -10 27 17 10 -52 73 -72 65 -8 -3 -24 0 -36 6 -17 9 -19 14 -10 25 9 11 2 21 -35 47 -84 58 -83 57 -62 58 31 0 18 14 -56 61 -156 98 -306 181 -402 221 -22 9 -80 34 -130 56 -49 21 -117 46 -150 56 -33 9 -82 24 -110 32 -123 39 -206 58 -370 88 -49 9 -115 21 -145 27 -56 11 -584 20 -699 12z m2296 -1290 c-4 -3 -7 0 -7 7 0 7 3 10 7 7 3 -4 3 -10 0 -14z"/>
<path d="M9531 7024 c0 -11 3 -14 6 -6 3 7 2 16 -1 19 -3 4 -6 -2 -5 -13z"/>
<path d="M9560 7020 c0 -7 3 -10 7 -7 3 4 3 10 0 14 -4 3 -7 0 -7 -7z"/>
<path d="M9869 6479 c0 -22 -1 -23 -9 -4 -8 18 -9 18 -9 2 -1 -10 -5 -16 -10 -13 -9 6 -21 -16 -21 -37 0 -7 4 -6 10 3 5 8 10 11 10 5 0 -5 -4 -16 -9 -24 -7 -10 -12 -8 -26 10 -12 18 -18 20 -22 10 -5 -11 -7 -11 -15 0 -8 11 -9 11 -5 -1 2 -8 7 -26 11 -40 7 -24 7 -25 -9 -5 -16 19 -16 19 -9 -8 5 -21 3 -27 -7 -25 -8 2 -17 10 -20 18 -3 8 -11 -7 -18 -38 -7 -28 -16 -50 -21 -47 -4 2 -5 -6 -3 -20 3 -13 -2 -34 -11 -47 -9 -12 -16 -17 -16 -11 0 7 5 15 10 18 13 8 13 25 1 25 -5 0 -12 -12 -15 -27 -2 -16 -8 -46 -12 -68 l-8 -40 -5 35 -6 34 -13 -28 c-9 -20 -9 -25 0 -20 8 5 9 2 5 -10 -4 -10 -7 -20 -7 -22 0 -3 -4 -2 -10 1 -6 4 -10 -7 -10 -25 0 -18 -4 -29 -10 -25 -11 7 -13 -5 -10 -42 1 -13 -3 -23 -9 -23 -6 0 -12 -21 -12 -47 -1 -42 -2 -44 -8 -18 -5 21 -10 -6 -15 -87 -5 -65 -12 -118 -15 -118 -7 0 -15 -79 -36 -325 -2 -27 -9 -74 -15 -104 -6 -29 -9 -60 -5 -68 3 -9 0 -22 -6 -29 -6 -8 -9 -23 -6 -34 3 -11 0 -20 -6 -20 -6 0 -8 -3 -4 -6 3 -3 2 -17 -4 -31 -6 -16 -6 -22 1 -18 6 3 10 1 10 -4 0 -6 -4 -11 -9 -11 -4 0 -11 -19 -14 -42 -13 -93 -47 -201 -93 -289 -13 -25 -21 -49 -17 -53 3 -3 1 -6 -5 -6 -7 0 -12 -7 -12 -15 0 -8 -4 -15 -8 -15 -4 0 -9 -10 -9 -22 -1 -13 -7 -24 -13 -26 -5 -2 -10 -12 -10 -23 0 -11 -7 -22 -15 -25 -8 -4 -15 -14 -15 -23 0 -19 -41 -77 -100 -142 -22 -24 -40 -48 -40 -54 0 -11 -70 -75 -82 -75 -5 0 -7 -3 -5 -7 3 -5 -1 -14 -9 -21 -8 -7 -14 -10 -14 -6 0 12 -40 -28 -40 -40 -1 -6 -24 -27 -51 -46 -28 -19 -56 -40 -62 -46 -7 -5 -31 -21 -55 -35 -23 -14 -40 -29 -37 -32 3 -4 2 -5 -1 -2 -4 2 -35 -11 -70 -30 -35 -19 -70 -35 -79 -35 -8 0 -15 -5 -15 -10 0 -6 -3 -9 -7 -8 -14 4 -83 -23 -83 -32 0 -5 -8 -11 -17 -14 -10 -2 -49 -13 -88 -24 -142 -41 -161 -45 -208 -43 -27 1 -46 -2 -44 -6 14 -23 -418 -9 -543 18 -25 5 -58 11 -75 13 -16 2 -64 11 -105 20 -41 8 -97 17 -125 20 -27 2 -62 7 -77 11 -18 5 -28 3 -28 -4 0 -6 -8 -11 -17 -11 -16 0 -16 2 -3 11 11 8 9 9 -10 3 -14 -4 -38 -6 -55 -5 -48 2 -147 -22 -132 -32 7 -5 0 -7 -20 -3 -18 3 -33 2 -33 -2 0 -4 -21 -14 -47 -21 -62 -18 -68 -22 -52 -33 11 -8 10 -9 -3 -4 -20 6 -81 -22 -73 -34 3 -4 -3 -6 -13 -3 -10 2 -24 -3 -31 -11 -8 -9 -20 -16 -28 -16 -8 0 -12 -4 -8 -9 3 -5 -5 -13 -17 -17 -13 -4 -25 -10 -28 -13 -10 -14 -82 -51 -98 -51 -15 0 -15 -2 -2 -10 13 -9 13 -11 0 -20 -8 -5 -24 -10 -35 -10 -17 0 -17 -2 -5 -10 11 -7 5 -10 -23 -10 -21 0 -36 -4 -32 -9 3 -5 -3 -12 -14 -16 -15 -4 -18 -12 -14 -35 3 -25 1 -30 -16 -30 -12 0 -20 -5 -18 -12 1 -6 -9 -15 -23 -19 -24 -7 -24 -7 -2 -8 12 -1 22 -5 22 -11 0 -5 7 -10 15 -10 23 0 18 -19 -7 -30 -18 -7 -19 -9 -5 -9 28 -1 19 -21 -10 -22 -21 -1 -23 -2 -8 -6 31 -8 42 -23 17 -23 -31 0 -27 -13 8 -28 18 -8 45 -11 68 -8 20 4 51 2 67 -3 l30 -8 -35 -10 -35 -10 73 -22 c65 -21 71 -24 55 -36 -17 -12 -16 -14 12 -20 35 -7 99 -24 135 -35 67 -21 291 -59 466 -79 115 -14 435 -14 545 -1 145 17 243 31 284 40 22 4 65 13 95 19 64 14 105 24 245 62 61 16 201 60 220 69 11 4 39 17 63 26 34 15 39 20 25 25 -14 5 -9 11 27 28 25 11 50 21 56 21 16 0 192 91 239 123 22 15 43 27 47 27 9 0 109 61 126 78 7 6 17 12 22 12 5 0 15 6 22 13 7 6 38 29 68 49 31 21 64 45 75 55 11 10 38 31 60 48 51 38 302 288 340 340 17 22 38 49 48 60 10 11 27 34 38 52 13 20 25 30 35 26 7 -3 14 0 14 6 0 6 -5 11 -10 11 -6 0 2 18 16 40 15 22 29 38 32 36 2 -3 -5 -17 -17 -32 -23 -29 -27 -44 -12 -44 5 0 13 9 16 20 3 11 12 26 18 33 33 36 202 360 212 407 4 19 11 41 15 50 12 23 46 119 60 170 7 25 15 54 20 65 4 11 13 52 20 90 7 39 17 84 22 100 16 49 22 496 8 600 -20 144 -27 184 -29 152 -2 -41 -19 -24 -26 27 -4 23 -15 67 -25 97 -16 46 -19 50 -19 24 -2 -54 -21 -5 -21 53 0 29 -8 77 -17 105 -15 47 -18 50 -24 27 -4 -14 -7 -18 -8 -9 -1 9 -8 30 -16 45 l-15 29 0 -30 -1 -30 -14 30 -13 30 -2 -30 -1 -30 -11 25 c-6 14 -20 47 -32 73 -11 27 -22 44 -24 38 -6 -17 -22 -13 -23 7 -1 9 -5 1 -9 -18 -5 -23 -8 -27 -9 -12 -1 26 -21 30 -22 5 -1 -10 -7 2 -15 26 -17 53 -24 62 -25 30z m-1243 -3158 c-3 -4 -18 -11 -33 -14 -16 -3 -37 -8 -48 -12 -11 -3 -2 3 20 14 43 21 69 26 61 12z"/>
<path d="M9167 6237 c-83 -106 -228 -246 -339 -326 -49 -35 -88 -65 -88 -68 0 -3 9 -18 20 -34 72 -100 159 -340 175 -481 6 -55 5 -58 -18 -67 -58 -22 -76 -103 -32 -146 13 -14 31 -25 40 -25 18 0 18 5 0 -105 -26 -160 -83 -306 -180 -456 -47 -72 -160 -198 -209 -231 -24 -16 -27 -17 -14 -3 16 17 14 22 -18 84 -19 36 -34 71 -34 77 0 7 -3 14 -7 16 -5 2 -18 21 -29 43 -12 22 -38 69 -57 104 -32 60 -34 66 -19 78 9 7 -28 -8 -83 -33 -55 -25 -120 -55 -145 -67 -68 -30 -264 -95 -370 -122 -157 -40 -285 -56 -493 -62 l-199 -6 35 49 c78 109 161 313 158 387 -1 15 2 27 6 27 5 0 8 52 8 115 0 63 -4 115 -8 115 -5 0 -6 14 -2 30 4 20 3 30 -5 30 -7 0 -10 8 -7 20 3 11 1 23 -5 26 -5 3 -7 12 -4 20 3 8 1 14 -5 14 -6 0 -9 6 -6 14 3 7 0 19 -6 25 -6 6 -7 11 -3 11 4 0 -2 15 -13 33 -11 19 -18 37 -14 40 3 4 1 7 -6 7 -7 0 -9 5 -6 10 3 6 1 10 -5 10 -6 0 -8 5 -5 10 3 6 1 10 -5 10 -6 0 -8 5 -5 10 3 6 1 10 -4 10 -6 0 -11 7 -11 15 0 8 -5 15 -11 15 -5 0 -8 4 -5 9 3 5 -1 12 -10 15 -8 3 -13 10 -10 15 3 5 -1 12 -9 15 -8 3 -14 9 -13 13 4 11 -10 26 -111 128 -46 47 -87 85 -92 85 -5 0 -13 9 -19 20 -6 11 -15 18 -19 15 -5 -3 -12 2 -15 11 -3 8 -10 12 -16 9 -6 -3 -13 1 -16 9 -3 9 -12 16 -20 16 -8 0 -14 4 -14 10 0 5 -11 12 -25 16 -14 3 -25 10 -25 16 0 5 -4 6 -10 3 -5 -3 -10 -1 -10 5 0 6 -4 8 -10 5 -5 -3 -10 -1 -10 5 0 6 -4 8 -10 5 -5 -3 -10 -1 -10 5 0 6 -4 8 -10 5 -5 -3 -10 -1 -10 5 0 6 -4 8 -10 5 -5 -3 -10 -1 -10 5 0 6 -4 8 -10 5 -5 -3 -10 -1 -10 5 0 7 -7 10 -15 6 -8 -3 -15 -1 -15 5 0 6 -4 7 -10 4 -5 -3 -10 -1 -10 5 0 7 -7 10 -15 6 -8 -3 -15 -1 -15 4 0 6 -3 9 -7 9 -5 -1 -11 0 -15 1 -5 1 -12 4 -18 5 -5 1 -11 3 -12 5 -2 1 -12 4 -23 6 -34 8 -50 12 -50 14 0 2 -28 8 -65 15 -14 3 -36 8 -50 11 -14 3 -36 5 -50 5 -14 0 -31 2 -39 5 -8 2 -103 6 -213 9 -110 2 -203 7 -207 9 -16 10 -183 -15 -298 -44 -293 -76 -756 -258 -1283 -505 -102 -48 -211 -99 -242 -113 -32 -14 -58 -29 -58 -34 0 -4 52 -8 115 -8 l115 0 0 -30 0 -30 -192 0 -193 0 -393 -197 c-215 -109 -392 -201 -392 -205 0 -5 97 -8 215 -8 l215 0 0 -30 0 -30 -285 0 -285 0 -263 -139 c-433 -229 -477 -254 -477 -264 0 -6 118 -8 333 -6 l332 4 0 -33 0 -33 -403 1 -403 0 -242 -133 c-397 -220 -487 -271 -487 -276 0 -3 237 -4 527 -1 l528 5 205 139 c347 234 917 606 1205 784 295 184 519 320 702 428 776 458 1361 734 1557 734 62 0 64 -1 69 -27 3 -16 21 -73 40 -128 20 -55 40 -118 46 -140 5 -22 28 -92 51 -155 23 -63 55 -158 71 -210 33 -104 77 -239 138 -425 22 -66 55 -169 75 -230 19 -60 50 -155 69 -210 19 -55 56 -165 82 -245 26 -80 51 -150 57 -157 7 -8 -1 -18 -29 -32 -71 -38 -23 -21 60 20 105 53 205 118 261 169 l44 41 91 -61 c394 -264 896 -328 1361 -174 472 156 826 526 945 984 48 188 46 424 -6 620 l-20 75 41 88 c63 133 144 388 128 398 -20 13 -210 86 -240 93 -24 5 -33 -2 -91 -77z m-2107 -1851 c0 -3 -5 -8 -12 -12 -7 -4 -8 -3 -4 4 7 12 16 16 16 8z"/>
<path d="M9796 4173 c-6 -14 -5 -15 5 -6 7 7 10 15 7 18 -3 3 -9 -2 -12 -12z"/>
</g>
<g id="layer113" fill="#cb166f" stroke="none">
<path d="M6990 9160 c-487 -46 -965 -243 -1319 -544 -161 -136 -376 -371 -365 -400 3 -7 17 -16 32 -19 119 -24 212 -46 287 -67 22 -6 56 -15 75 -20 19 -5 53 -14 75 -20 38 -11 64 -17 158 -40 99 -25 116 -27 127 -16 7 7 7 0 -1 -22 -18 -53 -4 -47 16 5 33 91 146 297 217 397 95 133 303 340 433 430 116 80 244 150 368 201 92 38 293 95 337 95 21 1 22 2 9 10 -24 14 -336 20 -449 10z"/>
<path d="M5268 8188 c-29 -39 -41 -58 -35 -58 8 0 69 81 64 86 -2 2 -15 -10 -29 -28z"/>
<path d="M5214 8108 c-4 -7 -3 -8 4 -4 12 7 16 16 8 16 -3 0 -8 -5 -12 -12z"/>
<path d="M5114 7948 c-4 -7 -3 -8 4 -4 12 7 16 16 8 16 -3 0 -8 -5 -12 -12z"/>
<path d="M6040 7950 c0 -7 3 -10 7 -7 3 4 3 10 0 14 -4 3 -7 0 -7 -7z"/>
<path d="M6030 7910 c0 -7 3 -10 7 -7 3 4 3 10 0 14 -4 3 -7 0 -7 -7z"/>
<path d="M6010 7840 c0 -7 3 -10 7 -7 3 4 3 10 0 14 -4 3 -7 0 -7 -7z"/>
<path d="M6000 7800 c0 -7 3 -10 7 -7 3 4 3 10 0 14 -4 3 -7 0 -7 -7z"/>
<path d="M5992 7760 c0 -14 2 -19 5 -12 2 6 2 18 0 25 -3 6 -5 1 -5 -13z"/>
<path d="M5980 7710 c0 -7 3 -10 7 -7 3 4 3 10 0 14 -4 3 -7 0 -7 -7z"/>
<path d="M5971 7664 c0 -11 3 -14 6 -6 3 7 2 16 -1 19 -3 4 -6 -2 -5 -13z"/>
<path d="M5960 7590 c0 -7 3 -10 7 -7 3 4 3 10 0 14 -4 3 -7 0 -7 -7z"/>
<path d="M9190 6258 c-91 -123 -284 -302 -431 -399 l-23 -16 23 -31 c74 -105 161 -345 176 -489 6 -55 5 -63 -9 -63 -30 0 -66 -46 -66 -85 0 -38 35 -85 65 -85 18 0 18 5 0 -105 -26 -160 -83 -306 -180 -456 -47 -72 -160 -198 -209 -231 -24 -16 -27 -17 -14 -3 16 17 14 22 -18 84 -19 36 -34 71 -34 77 0 7 -3 14 -7 16 -5 2 -18 21 -29 43 -12 22 -38 69 -57 104 -32 60 -34 66 -19 78 9 7 -28 -8 -83 -33 -55 -25 -120 -55 -145 -67 -68 -31 -264 -95 -370 -122 -166 -42 -279 -56 -488 -62 l-204 -6 35 49 c54 76 114 201 138 289 23 84 42 355 25 355 -4 0 -6 13 -4 30 2 16 1 31 -3 32 -4 2 -9 19 -11 38 -1 19 -6 37 -10 40 -4 3 -8 17 -10 30 -2 14 -11 39 -21 56 -9 17 -13 34 -10 38 4 3 1 6 -6 6 -7 0 -9 5 -6 10 3 6 1 10 -5 10 -6 0 -8 5 -5 10 3 6 1 10 -6 10 -7 0 -10 3 -6 6 3 3 -3 15 -13 27 -11 11 -17 23 -15 27 3 5 -2 11 -11 14 -8 3 -13 10 -10 15 3 5 -1 12 -10 15 -9 4 -14 9 -11 12 6 6 7 5 -111 128 -46 47 -87 86 -92 86 -5 0 -14 9 -20 20 -6 11 -15 18 -21 15 -5 -4 -12 1 -15 9 -3 9 -10 13 -15 10 -5 -3 -12 2 -15 10 -3 9 -12 16 -20 16 -8 0 -14 4 -14 9 0 5 -11 12 -25 15 -14 4 -25 11 -25 17 0 6 -4 7 -10 4 -5 -3 -10 -1 -10 5 0 6 -4 8 -10 5 -5 -3 -10 -1 -10 5 0 6 -4 8 -10 5 -5 -3 -10 -1 -10 5 0 6 -4 8 -10 5 -5 -3 -10 -1 -10 5 0 6 -4 8 -10 5 -5 -3 -10 -1 -10 5 0 6 -4 8 -10 5 -5 -3 -10 -2 -10 4 0 6 -7 8 -15 5 -8 -4 -15 -1 -15 6 0 6 -4 8 -10 5 -5 -3 -10 -2 -10 4 0 6 -7 8 -15 5 -8 -4 -15 -1 -15 5 0 6 -3 10 -7 10 -5 -1 -11 0 -15 1 -5 1 -12 4 -18 5 -5 1 -11 3 -12 4 -2 2 -14 4 -28 7 -14 2 -32 7 -40 11 -17 7 -35 12 -70 18 -14 3 -36 7 -50 10 -14 3 -38 6 -53 5 -16 0 -33 2 -39 6 -5 4 -58 6 -116 5 -59 0 -156 3 -217 8 -129 10 -224 1 -361 -34 -290 -73 -784 -268 -1349 -532 -223 -105 -245 -116 -245 -122 0 -3 49 -5 110 -3 l110 3 0 -35 0 -36 -191 0 -191 0 -392 -197 -391 -198 210 -5 210 -5 0 -35 0 -35 -289 -2 -289 -2 -81 -42 c-87 -45 -453 -240 -576 -308 l-75 -41 335 -2 335 -3 0 -35 0 -35 -415 -5 -415 -5 -230 -127 c-127 -70 -286 -158 -355 -197 l-125 -71 522 0 523 0 402 268 c728 483 1367 884 1888 1184 701 404 1213 638 1394 638 62 0 64 -1 69 -27 3 -16 21 -73 40 -128 20 -55 40 -118 46 -140 5 -22 28 -92 51 -155 23 -63 55 -158 71 -210 33 -104 77 -239 138 -425 22 -66 55 -169 75 -230 19 -60 50 -155 69 -210 19 -55 56 -165 82 -245 26 -80 51 -150 57 -157 7 -8 -1 -18 -29 -32 -71 -38 -23 -21 60 20 105 53 205 118 261 169 l44 41 83 -57 c157 -105 353 -186 559 -230 123 -27 488 -27 610 0 307 66 560 198 765 397 349 340 486 796 374 1247 l-21 83 46 107 c56 134 114 307 118 352 l3 34 -105 42 c-156 62 -147 63 -200 -8z m-2130 -1872 c0 -3 -5 -8 -12 -12 -7 -4 -8 -3 -4 4 7 12 16 16 16 8z"/>
<path d="M6533 4033 c4 -3 10 -3 14 0 3 4 0 7 -7 7 -7 0 -10 -3 -7 -7z"/>
</g>
<g id="layer114" fill="#db186f" stroke="none">
<path d="M6945 9154 c-120 -14 -360 -63 -351 -72 3 -2 33 3 68 11 104 26 237 47 348 56 87 7 93 8 35 8 -38 0 -83 -2 -100 -3z"/>
<path d="M7271 9156 c2 -2 42 -6 89 -9 48 -3 74 -1 60 3 -25 8 -157 13 -149 6z"/>
<path d="M7348 9133 c6 -2 18 -2 25 0 6 3 1 5 -13 5 -14 0 -19 -2 -12 -5z"/>
<path d="M7313 9123 c4 -3 10 -3 14 0 3 4 0 7 -7 7 -7 0 -10 -3 -7 -7z"/>
<path d="M7268 9113 c7 -3 16 -2 19 1 4 3 -2 6 -13 5 -11 0 -14 -3 -6 -6z"/>
<path d="M7228 9103 c7 -3 16 -2 19 1 4 3 -2 6 -13 5 -11 0 -14 -3 -6 -6z"/>
<path d="M7165 9085 c-25 -12 -26 -14 -5 -9 28 7 60 23 45 23 -5 0 -23 -6 -40 -14z"/>
<path d="M6535 9070 c-13 -5 -14 -9 -5 -9 8 0 24 4 35 9 13 5 14 9 5 9 -8 0 -24 -4 -35 -9z"/>
<path d="M7100 9060 c-8 -5 -10 -10 -5 -10 6 0 17 5 25 10 8 5 11 10 5 10 -5 0 -17 -5 -25 -10z"/>
<path d="M6493 9053 c4 -3 10 -3 14 0 3 4 0 7 -7 7 -7 0 -10 -3 -7 -7z"/>
<path d="M6463 9043 c4 -3 10 -3 14 0 3 4 0 7 -7 7 -7 0 -10 -3 -7 -7z"/>
<path d="M7010 9020 c-30 -16 -50 -29 -45 -29 6 0 35 13 65 29 30 16 51 29 45 29 -5 0 -35 -13 -65 -29z"/>
<path d="M6428 9033 c7 -3 16 -2 19 1 4 3 -2 6 -13 5 -11 0 -14 -3 -6 -6z"/>
<path d="M6393 9023 c4 -3 10 -3 14 0 3 4 0 7 -7 7 -7 0 -10 -3 -7 -7z"/>
<path d="M6363 9013 c4 -3 10 -3 14 0 3 4 0 7 -7 7 -7 0 -10 -3 -7 -7z"/>
<path d="M6245 8969 c-49 -23 -94 -45 -100 -50 -5 -6 37 11 95 36 58 26 107 49 109 51 13 12 -24 -1 -104 -37z"/>
<path d="M6778 8894 c-46 -31 -90 -63 -98 -71 -8 -9 30 15 85 52 108 73 111 75 102 75 -3 0 -44 -25 -89 -56z"/>
<path d="M5995 8844 c-42 -28 -72 -54 -45 -38 47 26 103 64 94 64 -5 0 -27 -12 -49 -26z"/>
<path d="M6575 8739 c-92 -82 -101 -91 -60 -61 36 26 152 131 145 132 -3 0 -41 -32 -85 -71z"/>
<path d="M5914 8788 c-4 -7 -3 -8 4 -4 12 7 16 16 8 16 -3 0 -8 -5 -12 -12z"/>
<path d="M5884 8768 c-4 -7 -3 -8 4 -4 12 7 16 16 8 16 -3 0 -8 -5 -12 -12z"/>
<path d="M5759 8683 c-13 -16 -12 -17 4 -4 9 7 17 15 17 17 0 8 -8 3 -21 -13z"/>
<path d="M5719 8653 c-13 -16 -12 -17 4 -4 9 7 17 15 17 17 0 8 -8 3 -21 -13z"/>
<path d="M6425 8593 c-27 -32 -39 -49 -26 -38 24 21 86 95 79 95 -2 0 -26 -26 -53 -57z"/>
<path d="M6284 8418 c-4 -7 -3 -8 4 -4 12 7 16 16 8 16 -3 0 -8 -5 -12 -12z"/>
<path d="M9190 6258 c-91 -123 -284 -302 -431 -399 l-23 -16 23 -31 c74 -105 161 -345 176 -489 6 -55 5 -63 -9 -63 -30 0 -66 -46 -66 -85 0 -38 35 -85 65 -85 18 0 18 5 0 -105 -26 -160 -83 -306 -180 -456 -47 -72 -160 -198 -209 -231 -24 -16 -27 -17 -14 -3 16 17 14 22 -18 84 -19 36 -34 71 -34 77 0 7 -3 14 -7 16 -5 2 -18 21 -29 43 -12 22 -38 69 -57 104 -32 60 -34 66 -19 78 9 7 -28 -8 -83 -33 -55 -25 -120 -55 -145 -67 -68 -31 -264 -95 -370 -122 -167 -43 -278 -56 -492 -62 -115 -3 -208 -10 -208 -15 0 -5 -20 -30 -45 -56 -25 -26 -45 -50 -45 -54 0 -13 156 -110 255 -158 110 -53 244 -98 375 -126 123 -27 488 -27 610 0 307 66 560 198 765 397 349 340 486 796 374 1247 l-21 83 46 107 c56 134 114 307 118 352 l3 34 -105 42 c-156 62 -147 63 -200 -8z"/>
<path d="M6290 6010 c0 -5 5 -10 11 -10 5 0 7 5 4 10 -3 6 -8 10 -11 10 -2 0 -4 -4 -4 -10z"/>
<path d="M6330 6000 c-13 -8 -12 -10 3 -10 9 0 17 5 17 10 0 12 -1 12 -20 0z"/>
<path d="M6375 5990 c-3 -5 -1 -10 4 -10 6 0 11 5 11 10 0 6 -2 10 -4 10 -3 0 -8 -4 -11 -10z"/>
<path d="M6408 5973 c7 -3 16 -2 19 1 4 3 -2 6 -13 5 -11 0 -14 -3 -6 -6z"/>
<path d="M6446 5972 c-3 -5 1 -13 10 -16 23 -9 34 -7 34 5 0 5 -5 7 -11 3 -6 -3 -15 -1 -19 6 -5 8 -10 8 -14 2z"/>
<path d="M6504 5948 c-4 -7 -3 -8 4 -4 12 7 16 16 8 16 -3 0 -8 -5 -12 -12z"/>
<path d="M6530 5940 c-9 -6 -10 -10 -3 -10 6 0 15 5 18 10 8 12 4 12 -15 0z"/>
<path d="M6554 5928 c-4 -7 -3 -8 4 -4 12 7 16 16 8 16 -3 0 -8 -5 -12 -12z"/>
<path d="M6582 5922 c-9 -6 -5 -12 14 -21 20 -9 30 -9 38 -1 8 8 6 9 -8 4 -13 -5 -17 -4 -12 4 5 8 1 10 -10 5 -12 -4 -15 -3 -10 5 8 14 6 15 -12 4z"/>
<path d="M6644 5888 c-4 -7 -3 -8 4 -4 7 4 12 9 12 12 0 8 -9 4 -16 -8z"/>
<path d="M6667 5884 c-4 -4 17 -21 46 -38 29 -17 81 -51 115 -74 33 -24 63 -43 66 -43 4 1 45 -42 92 -94 48 -52 89 -95 92 -95 3 0 -3 9 -13 20 -10 11 -16 20 -13 20 6 0 -145 153 -152 155 -14 2 -42 23 -41 31 1 5 -3 10 -9 10 -5 1 -15 2 -21 3 -5 0 -7 6 -3 13 4 7 3 8 -5 4 -6 -4 -14 0 -17 8 -3 9 -10 13 -15 10 -5 -3 -12 2 -15 10 -3 9 -10 13 -15 11 -4 -3 -17 3 -28 14 -11 11 -22 17 -25 14 -3 -4 -6 -1 -6 6 0 7 -4 10 -9 7 -5 -4 -11 -1 -13 5 -2 5 -7 7 -11 3z"/>
<path d="M7086 5532 c-2 -4 15 -39 40 -77 24 -39 53 -94 65 -122 12 -29 25 -50 30 -47 5 3 2 12 -6 20 -13 14 -20 35 -16 57 0 4 -4 7 -10 7 -5 0 -7 5 -4 10 3 6 1 10 -5 10 -6 0 -8 5 -5 10 3 6 1 10 -5 10 -6 0 -8 5 -4 12 4 6 3 8 -4 4 -10 -6 -28 30 -24 47 1 5 -2 6 -8 2 -9 -6 -14 8 -11 28 1 5 -3 6 -9 2 -9 -6 -14 7 -11 28 1 9 -6 9 -13 -1z"/>
<path d="M7221 5254 c0 -11 3 -14 6 -6 3 7 2 16 -1 19 -3 4 -6 -2 -5 -13z"/>
<path d="M7233 5225 c-3 -9 -3 -18 -1 -21 3 -3 8 4 11 16 6 23 -1 27 -10 5z"/>
<path d="M7242 5160 c0 -14 2 -19 5 -12 2 6 2 18 0 25 -3 6 -5 1 -5 -13z"/>
<path d="M7258 5020 c2 -63 5 -119 7 -125 7 -20 2 181 -4 210 -4 17 -6 -22 -3 -85z"/>
<path d="M7252 4855 c0 -16 2 -22 5 -12 2 9 2 23 0 30 -3 6 -5 -1 -5 -18z"/>
<path d="M7242 4800 c0 -14 2 -19 5 -12 2 6 2 18 0 25 -3 6 -5 1 -5 -13z"/>
<path d="M7231 4754 c0 -11 3 -14 6 -6 3 7 2 16 -1 19 -3 4 -6 -2 -5 -13z"/>
<path d="M7221 4714 c0 -11 3 -14 6 -6 3 7 2 16 -1 19 -3 4 -6 -2 -5 -13z"/>
<path d="M7201 4658 c-6 -19 -31 -69 -56 -112 -24 -43 -38 -73 -30 -66 18 15 110 198 103 205 -3 4 -11 -9 -17 -27z"/>
<path d="M7084 4448 c-4 -7 -3 -8 4 -4 7 4 12 9 12 12 0 8 -9 4 -16 -8z"/>
</g>
<g id="layer115" fill="#eb631d" stroke="none">
<path d="M9190 6258 c-91 -123 -284 -302 -431 -399 l-23 -16 23 -31 c74 -105 161 -345 176 -489 6 -55 5 -63 -9 -63 -30 0 -66 -46 -66 -85 0 -38 35 -85 65 -85 18 0 18 5 0 -105 -26 -160 -83 -306 -180 -456 -47 -72 -160 -198 -209 -231 -24 -16 -27 -17 -14 -3 16 17 14 22 -18 84 -19 36 -34 71 -34 77 0 7 -3 14 -7 16 -5 2 -18 21 -29 43 -12 22 -38 69 -57 104 -32 60 -34 66 -19 78 9 7 -28 -8 -83 -33 -55 -25 -120 -55 -145 -67 -68 -31 -264 -95 -370 -122 -164 -42 -279 -56 -485 -62 l-199 -6 -51 -55 c-27 -30 -51 -58 -53 -62 -5 -13 146 -108 253 -160 110 -53 244 -98 375 -126 123 -27 488 -27 610 0 307 66 560 198 765 397 349 340 486 796 374 1247 l-21 83 46 107 c56 134 114 307 118 352 l3 34 -105 42 c-156 62 -147 63 -200 -8z"/>
</g>
<g id="layer116" fill="#6f7e8e" stroke="none">
<path d="M7460 7273 c-25 -2 -79 -11 -120 -20 -41 -8 -86 -18 -100 -20 -39 -7 -155 -42 -275 -83 -86 -29 -111 -41 -113 -56 -2 -11 -18 -28 -38 -39 -25 -14 -33 -23 -28 -37 3 -12 0 -18 -10 -18 -9 0 -16 5 -16 10 0 6 -7 10 -16 10 -11 0 -13 -6 -9 -19 4 -14 0 -23 -15 -31 -11 -6 -18 -16 -14 -22 4 -5 1 -14 -5 -18 -15 -9 -19 -37 -25 -167 -3 -57 -8 -108 -12 -114 -4 -8 -3 -9 5 -5 8 6 10 1 6 -16 -3 -13 -1 -37 6 -53 7 -17 13 -32 13 -35 1 -3 5 -11 9 -17 5 -7 6 -17 2 -22 -3 -5 0 -13 6 -16 5 -4 8 -13 5 -21 -3 -7 0 -16 6 -20 7 -5 8 -2 3 6 -5 8 -4 11 3 6 6 -4 9 -12 6 -19 -2 -7 12 -40 33 -72 21 -33 44 -72 52 -87 8 -16 18 -28 23 -28 4 0 8 -4 8 -10 0 -5 16 -26 35 -46 19 -19 35 -39 35 -44 0 -5 33 -35 74 -68 41 -33 72 -63 68 -67 -4 -4 -2 -6 3 -5 21 5 36 0 30 -10 -3 -5 0 -10 9 -10 8 0 16 -4 18 -8 6 -15 202 -122 223 -122 8 0 15 -4 15 -10 0 -5 7 -10 15 -10 8 0 60 -16 116 -35 402 -138 829 -64 1093 189 17 17 57 54 88 83 32 29 56 53 53 53 -3 0 11 17 31 38 19 20 43 51 51 67 9 17 19 32 22 35 15 13 51 71 51 83 0 8 8 25 18 38 19 24 45 89 36 89 -3 0 0 9 6 20 5 10 12 38 15 62 5 49 13 97 20 116 3 7 1 11 -4 8 -12 -8 -17 19 -16 81 0 43 -3 53 -19 57 -13 3 -17 11 -13 25 3 13 0 21 -8 21 -8 0 -11 8 -8 20 4 14 0 20 -12 20 -12 0 -15 5 -10 20 5 14 2 20 -9 20 -9 0 -16 7 -16 15 0 10 -10 15 -30 15 -22 0 -30 5 -30 18 0 11 -15 24 -41 35 -26 11 -39 23 -36 31 5 14 -56 46 -123 64 -19 5 -59 19 -88 31 -107 43 -296 88 -457 111 -66 9 -496 11 -595 3z"/>
<path d="M9170 6229 c-83 -104 -238 -250 -345 -327 l-84 -59 26 -38 c73 -108 153 -326 171 -468 l9 -68 -33 -14 c-38 -16 -54 -41 -54 -85 0 -33 36 -76 69 -82 16 -3 16 -10 5 -88 -59 -400 -347 -764 -721 -910 -81 -32 -222 -70 -258 -70 -2 0 -12 17 -21 38 -10 20 -25 48 -34 62 -10 14 -21 36 -25 50 -4 14 -18 41 -30 60 -12 19 -40 70 -63 113 -22 43 -45 84 -51 91 -9 11 -2 16 34 26 75 21 44 22 -41 1 -127 -32 -297 -52 -479 -57 l-170 -4 -47 -53 c-26 -28 -48 -55 -48 -59 0 -15 157 -113 254 -158 197 -93 378 -137 601 -147 273 -12 510 36 752 152 388 185 656 504 760 902 26 102 28 119 27 308 -1 178 -3 210 -25 295 l-25 95 32 70 c44 98 99 247 123 334 l20 73 -72 33 c-76 35 -160 65 -180 65 -7 0 -41 -37 -77 -81z"/>
<path d="M5665 6039 c-264 -32 -822 -240 -1520 -566 -223 -105 -245 -116 -245 -122 0 -3 49 -5 110 -3 l110 3 0 -35 0 -36 -191 0 -191 0 -392 -197 -391 -198 210 -5 210 -5 0 -35 0 -35 -289 -2 -289 -2 -81 -42 c-87 -45 -453 -240 -576 -308 l-75 -41 335 -2 335 -3 0 -35 0 -35 -415 -5 -415 -5 -230 -127 c-127 -70 -286 -158 -355 -197 l-125 -71 522 0 523 0 402 268 c1469 976 2558 1603 3098 1782 63 21 131 43 150 48 32 9 30 10 -31 11 -37 1 -79 3 -95 5 -16 2 -60 0 -99 -5z"/>
<path d="M6855 5770 c3 -5 8 -10 11 -10 3 0 2 5 -1 10 -3 6 -8 10 -11 10 -3 0 -2 -4 1 -10z"/>
<path d="M6905 5730 c3 -5 8 -10 11 -10 3 0 2 5 -1 10 -3 6 -8 10 -11 10 -3 0 -2 -4 1 -10z"/>
</g>
<g id="layer117" fill="#f08218" stroke="none">
<path d="M9170 6229 c-83 -104 -238 -250 -345 -327 l-84 -59 26 -38 c73 -108 153 -326 171 -468 l9 -68 -33 -14 c-37 -15 -54 -41 -54 -83 0 -31 39 -79 69 -84 16 -3 16 -9 5 -88 -59 -400 -347 -764 -721 -910 -81 -32 -222 -70 -258 -70 -2 0 -12 17 -21 38 -10 20 -25 48 -34 62 -10 14 -21 36 -25 50 -4 14 -18 41 -30 60 -12 19 -40 70 -63 113 -22 43 -45 84 -51 91 -9 11 -2 16 34 26 75 21 44 22 -41 1 -127 -32 -297 -52 -479 -57 l-170 -4 -47 -53 c-26 -28 -48 -55 -48 -59 0 -15 157 -113 254 -158 197 -93 378 -137 601 -147 273 -12 510 36 752 152 388 185 656 504 760 902 26 102 28 119 27 308 -1 178 -3 210 -25 295 l-25 95 32 70 c44 98 99 247 123 334 l20 73 -72 33 c-76 35 -160 65 -180 65 -7 0 -41 -37 -77 -81z"/>
<path d="M7823 4483 c4 -3 10 -3 14 0 3 4 0 7 -7 7 -7 0 -10 -3 -7 -7z"/>
</g>
<g id="layer118" fill="#8d8c8d" stroke="none">
<path d="M7630 7109 c-192 -22 -320 -51 -525 -118 -63 -21 -81 -31 -83 -47 -2 -15 -21 -29 -63 -49 -46 -21 -58 -31 -54 -44 4 -13 -6 -23 -40 -40 -35 -18 -45 -28 -47 -49 -2 -41 -3 -46 -12 -60 -4 -7 -3 -19 4 -27 8 -10 8 -15 0 -20 -6 -4 -9 -13 -6 -21 3 -9 0 -11 -12 -7 -14 6 -15 4 -4 -9 9 -11 9 -18 3 -23 -7 -4 -5 -14 5 -30 8 -13 17 -43 19 -67 1 -24 17 -69 34 -101 17 -33 28 -63 25 -68 -3 -5 2 -9 11 -9 9 0 13 -5 9 -11 -3 -6 -3 -14 2 -18 16 -11 94 -109 94 -118 0 -5 12 -17 27 -28 15 -11 39 -31 53 -45 47 -44 112 -95 134 -105 11 -5 43 -25 71 -42 27 -18 56 -33 65 -33 8 0 24 -7 34 -15 11 -8 27 -15 35 -15 9 0 29 -7 45 -15 15 -8 34 -15 41 -15 7 0 15 -5 17 -11 2 -6 21 -15 43 -19 22 -5 72 -15 110 -24 102 -24 273 -31 393 -16 56 7 105 16 108 21 3 5 13 9 23 9 9 0 37 10 62 22 24 11 50 21 57 21 6 0 12 4 12 9 0 4 5 8 11 8 15 0 137 81 175 116 17 16 41 36 53 44 11 8 21 19 21 25 1 5 24 35 52 65 29 30 48 49 43 41 -5 -10 -4 -12 4 -7 6 4 9 11 6 15 -2 5 12 27 32 51 21 24 38 50 39 58 2 8 6 18 11 21 14 11 35 53 38 79 1 13 6 27 11 31 5 3 11 13 13 21 2 8 6 23 8 33 3 10 0 17 -8 17 -12 0 -12 2 0 9 7 5 15 21 17 37 1 16 6 39 10 52 5 17 2 22 -12 22 -13 0 -15 3 -7 11 6 6 8 23 3 44 -5 21 -3 38 4 45 8 9 6 11 -12 5 -12 -3 -22 -3 -21 2 2 8 -6 31 -34 96 -8 19 -28 35 -60 49 -30 13 -52 30 -58 45 -5 12 -15 23 -23 23 -20 0 -117 46 -118 56 0 18 -186 70 -368 103 -165 30 -365 37 -520 20z"/>
<path d="M5562 6019 c-286 -60 -814 -264 -1422 -549 -254 -119 -240 -112 -240 -119 0 -3 49 -5 110 -3 l110 3 0 -35 0 -36 -191 0 -191 0 -392 -197 -391 -198 210 -5 210 -5 0 -35 0 -35 -289 -2 -289 -2 -81 -42 c-87 -45 -453 -240 -576 -308 l-75 -41 335 -2 335 -3 0 -35 0 -35 -415 -5 -415 -5 -230 -127 c-127 -70 -286 -158 -355 -197 l-125 -71 522 0 523 0 402 268 c1083 720 1937 1236 2557 1547 252 126 388 185 551 238 69 22 134 44 145 48 46 18 -241 7 -333 -12z"/>
<path d="M8885 5235 c-68 -67 14 -178 98 -133 80 42 52 158 -38 158 -25 0 -44 -8 -60 -25z"/>
</g>
<g id="layer119" fill="#cbbba0" stroke="none">
<path d="M5660 6033 c-312 -49 -844 -248 -1556 -584 l-201 -94 111 -5 111 -5 0 -35 0 -35 -205 -5 -205 -5 -365 -183 c-201 -101 -369 -188 -374 -193 -6 -5 72 -9 197 -9 l207 0 0 -40 0 -40 -289 0 -290 0 -168 -89 c-212 -111 -454 -241 -513 -275 l-45 -26 333 0 332 0 0 -40 0 -40 -408 0 -408 0 -145 -78 c-172 -94 -498 -276 -542 -303 -32 -19 -30 -19 483 -19 l515 0 440 293 c243 161 504 333 580 382 304 193 364 231 480 303 606 378 1090 654 1490 852 267 132 434 202 574 243 44 13 84 26 87 30 8 7 -181 7 -226 0z"/>
<path d="M8885 5234 c-66 -71 14 -177 98 -132 33 17 46 39 47 76 0 75 -94 111 -145 56z"/>
</g>
<g id="layer120" fill="#ddd1b9" stroke="none">
<path d="M8899 5247 c-21 -16 -39 -51 -39 -77 0 -30 53 -80 85 -80 32 0 85 50 85 80 0 49 -38 89 -85 89 -16 0 -37 -5 -46 -12z"/>
<path d="M2943 4793 c82 -2 212 -2 290 0 78 1 12 3 -148 3 -159 0 -223 -2 -142 -3z"/>
</g>


</svg>